<svg width="120" height="30" viewBox="0 0 120 30" fill="none" xmlns="http://www.w3.org/2000/svg">
<mask id="path-1-outside-1_1004_51" maskUnits="userSpaceOnUse" x="0" y="0" width="120" height="30" fill="black">
<rect fill="white" width="120" height="30"/>
<path d="M11.5905 1.63885L19.8287 24.415C21.2079 28.2545 21.3197 28.7018 24.0037 28.7391V29H14.7963V28.7391H18.5985V28.6272C17.6293 28.1799 17.5175 27.3225 16.6974 25.0859L15.691 22.3275C13.4916 18.898 9.76395 16.3259 6.70725 16.3259C4.91797 16.3259 3.98605 17.2205 4.02332 18.6743C4.09788 21.5446 9.68939 21.5074 9.68939 25.6451C9.68939 27.7699 8.04921 29.3728 5.21618 29.3728C2.30859 29.3728 -1.26998 27.3971 1.04118 21.0228L7.78828 2.42166C8.01194 1.82524 7.90011 1.30336 7.00546 1.30336H3.16596V1.04242H10.6213C11.1432 1.04242 11.4787 1.30336 11.5905 1.63885ZM6.70725 16.065C9.98761 16.065 13.5289 18.898 15.5791 22.0292L8.31015 1.93707H8.2356L1.3394 20.9855C-0.748104 26.8007 2.12221 29.0746 5.21618 29.0746C7.78828 29.0746 9.61484 27.5835 9.61484 25.6451C9.61484 21.6565 3.79966 21.7683 3.72511 18.6743C3.68783 17.1087 4.80613 16.065 6.70725 16.065ZM33.4594 29.0746C35.8079 29.0746 37.7463 28.2917 37.7463 25.7569C37.7463 23.7813 36.1434 22.8121 32.863 20.8364L29.6199 18.898C27.2342 17.4815 25.4822 16.4005 25.4822 13.7538C25.4822 10.7717 28.9862 9.5788 31.3719 9.61608C33.8695 9.65336 36.3298 10.2125 38.2681 10.958L38.9391 16.5496H38.6782C38.1563 13.1201 35.3978 9.95157 31.4838 9.91429C29.3217 9.87702 27.4952 10.548 27.4952 12.2255C27.4952 13.7911 28.7253 14.6857 31.4092 16.3259L35.1742 18.6371C38.0818 20.4263 39.9456 21.5446 39.9456 24.154C39.9456 27.0243 37.4108 29.3728 32.9376 29.3728C30.5519 29.3728 28.8371 28.8509 26.4514 27.7699L25.7432 22.1038H26.0041C26.4887 25.4214 29.6199 29.0746 33.4594 29.0746ZM54.1256 26.8007L54.2002 26.8752C52.8955 27.9563 51.1435 29.3728 48.9069 29.3728C46.0738 29.3728 44.5828 27.4717 44.5828 24.7504V10.2498H41.8243V9.98885H42.4953C46.3348 9.98885 47.4904 5.03104 47.4904 3.46541H47.7513V9.98885H52.8209V10.2498H47.7513V25.4214C47.7513 27.5089 48.7205 28.4781 50.398 28.4781C51.9636 28.4781 52.8955 27.7699 54.1256 26.8007ZM71.459 26.2042L71.5709 26.3161C69.8189 28.0308 67.3213 29.3728 64.1528 29.3728C59.0086 29.3728 54.1999 25.7569 54.1999 19.4944C54.1999 13.2319 59.0086 9.61608 63.4445 9.61608C68.2532 9.61608 71.0863 13.1201 71.0863 17.146L56.6229 17.1833C56.9211 23.6694 61.2452 28.329 66.1285 28.3663C68.4769 28.3663 70.2662 27.3971 71.459 26.2042ZM62.699 10.138C59.195 10.138 56.6229 12.3373 56.6229 16.5123V16.885H68.0668C68.0668 13.7911 66.874 10.138 62.699 10.138ZM85.024 9.61608C87.1488 9.61608 88.4907 10.6971 88.7889 10.9953L88.118 16.5868H87.8943C88.2298 13.5301 85.9932 10.9208 83.1602 10.9208C81.7436 10.9208 80.439 11.7409 79.0224 12.7101V24.415C79.0224 28.7391 79.097 28.7391 81.93 28.7391V29H74.1765V28.7391H76.4503V28.6272C75.8539 28.4036 75.8539 27.0989 75.8539 26.1297V11.6663C75.8539 10.1752 75.8912 10.1752 74.1019 10.3616L73.4309 10.4362V10.1752L78.9106 9.46697V12.4491C80.6626 11.2563 82.7128 9.61608 85.024 9.61608ZM94.7786 6.96943C93.6603 6.96943 92.8402 6.11206 92.8402 5.03104C92.8402 3.91273 93.6603 3.05537 94.7786 3.05537C95.8969 3.05537 96.7542 3.91273 96.7542 5.03104C96.7542 6.11206 95.8969 6.96943 94.7786 6.96943ZM91.0136 10.4362V10.1752L96.6051 9.46697V24.415C96.6051 28.7391 96.6797 28.7391 99.5127 28.7391V29H91.7591V28.7391H94.033V28.6272C93.4366 28.4036 93.4366 27.0989 93.4366 26.1297V11.1817C93.4366 10.1752 93.0638 10.138 91.7964 10.3243L91.0136 10.4362ZM118.488 28.329L119.607 28.1054V28.3663L113.754 29.5219V27.0616C112.673 27.9563 110.586 29.3728 107.417 29.3728C104.92 29.3728 101.751 27.8071 101.751 24.6759C101.751 19.4944 109.691 18.488 113.68 18.488C113.68 13.7538 113.68 9.91429 109.244 9.91429C105.404 9.91429 103.391 13.4929 103.727 16.5496H103.503L102.832 10.958C104.249 10.4362 107.678 9.61608 109.579 9.61608C113.456 9.61608 116.848 11.8154 116.848 17.7051V27.2107C116.848 28.329 116.923 28.6272 118.488 28.329ZM108.461 28.9254C110.548 28.9254 112.636 27.7326 113.68 26.8007V18.7489C109.318 18.8234 104.957 20.0536 104.957 24.6759C104.957 27.5462 106.262 28.9254 108.461 28.9254Z"/>
</mask>
<path d="M11.5905 1.63885L19.8287 24.415C21.2079 28.2545 21.3197 28.7018 24.0037 28.7391V29H14.7963V28.7391H18.5985V28.6272C17.6293 28.1799 17.5175 27.3225 16.6974 25.0859L15.691 22.3275C13.4916 18.898 9.76395 16.3259 6.70725 16.3259C4.91797 16.3259 3.98605 17.2205 4.02332 18.6743C4.09788 21.5446 9.68939 21.5074 9.68939 25.6451C9.68939 27.7699 8.04921 29.3728 5.21618 29.3728C2.30859 29.3728 -1.26998 27.3971 1.04118 21.0228L7.78828 2.42166C8.01194 1.82524 7.90011 1.30336 7.00546 1.30336H3.16596V1.04242H10.6213C11.1432 1.04242 11.4787 1.30336 11.5905 1.63885ZM6.70725 16.065C9.98761 16.065 13.5289 18.898 15.5791 22.0292L8.31015 1.93707H8.2356L1.3394 20.9855C-0.748104 26.8007 2.12221 29.0746 5.21618 29.0746C7.78828 29.0746 9.61484 27.5835 9.61484 25.6451C9.61484 21.6565 3.79966 21.7683 3.72511 18.6743C3.68783 17.1087 4.80613 16.065 6.70725 16.065ZM33.4594 29.0746C35.8079 29.0746 37.7463 28.2917 37.7463 25.7569C37.7463 23.7813 36.1434 22.8121 32.863 20.8364L29.6199 18.898C27.2342 17.4815 25.4822 16.4005 25.4822 13.7538C25.4822 10.7717 28.9862 9.5788 31.3719 9.61608C33.8695 9.65336 36.3298 10.2125 38.2681 10.958L38.9391 16.5496H38.6782C38.1563 13.1201 35.3978 9.95157 31.4838 9.91429C29.3217 9.87702 27.4952 10.548 27.4952 12.2255C27.4952 13.7911 28.7253 14.6857 31.4092 16.3259L35.1742 18.6371C38.0818 20.4263 39.9456 21.5446 39.9456 24.154C39.9456 27.0243 37.4108 29.3728 32.9376 29.3728C30.5519 29.3728 28.8371 28.8509 26.4514 27.7699L25.7432 22.1038H26.0041C26.4887 25.4214 29.6199 29.0746 33.4594 29.0746ZM54.1256 26.8007L54.2002 26.8752C52.8955 27.9563 51.1435 29.3728 48.9069 29.3728C46.0738 29.3728 44.5828 27.4717 44.5828 24.7504V10.2498H41.8243V9.98885H42.4953C46.3348 9.98885 47.4904 5.03104 47.4904 3.46541H47.7513V9.98885H52.8209V10.2498H47.7513V25.4214C47.7513 27.5089 48.7205 28.4781 50.398 28.4781C51.9636 28.4781 52.8955 27.7699 54.1256 26.8007ZM71.459 26.2042L71.5709 26.3161C69.8189 28.0308 67.3213 29.3728 64.1528 29.3728C59.0086 29.3728 54.1999 25.7569 54.1999 19.4944C54.1999 13.2319 59.0086 9.61608 63.4445 9.61608C68.2532 9.61608 71.0863 13.1201 71.0863 17.146L56.6229 17.1833C56.9211 23.6694 61.2452 28.329 66.1285 28.3663C68.4769 28.3663 70.2662 27.3971 71.459 26.2042ZM62.699 10.138C59.195 10.138 56.6229 12.3373 56.6229 16.5123V16.885H68.0668C68.0668 13.7911 66.874 10.138 62.699 10.138ZM85.024 9.61608C87.1488 9.61608 88.4907 10.6971 88.7889 10.9953L88.118 16.5868H87.8943C88.2298 13.5301 85.9932 10.9208 83.1602 10.9208C81.7436 10.9208 80.439 11.7409 79.0224 12.7101V24.415C79.0224 28.7391 79.097 28.7391 81.93 28.7391V29H74.1765V28.7391H76.4503V28.6272C75.8539 28.4036 75.8539 27.0989 75.8539 26.1297V11.6663C75.8539 10.1752 75.8912 10.1752 74.1019 10.3616L73.4309 10.4362V10.1752L78.9106 9.46697V12.4491C80.6626 11.2563 82.7128 9.61608 85.024 9.61608ZM94.7786 6.96943C93.6603 6.96943 92.8402 6.11206 92.8402 5.03104C92.8402 3.91273 93.6603 3.05537 94.7786 3.05537C95.8969 3.05537 96.7542 3.91273 96.7542 5.03104C96.7542 6.11206 95.8969 6.96943 94.7786 6.96943ZM91.0136 10.4362V10.1752L96.6051 9.46697V24.415C96.6051 28.7391 96.6797 28.7391 99.5127 28.7391V29H91.7591V28.7391H94.033V28.6272C93.4366 28.4036 93.4366 27.0989 93.4366 26.1297V11.1817C93.4366 10.1752 93.0638 10.138 91.7964 10.3243L91.0136 10.4362ZM118.488 28.329L119.607 28.1054V28.3663L113.754 29.5219V27.0616C112.673 27.9563 110.586 29.3728 107.417 29.3728C104.92 29.3728 101.751 27.8071 101.751 24.6759C101.751 19.4944 109.691 18.488 113.68 18.488C113.68 13.7538 113.68 9.91429 109.244 9.91429C105.404 9.91429 103.391 13.4929 103.727 16.5496H103.503L102.832 10.958C104.249 10.4362 107.678 9.61608 109.579 9.61608C113.456 9.61608 116.848 11.8154 116.848 17.7051V27.2107C116.848 28.329 116.923 28.6272 118.488 28.329ZM108.461 28.9254C110.548 28.9254 112.636 27.7326 113.68 26.8007V18.7489C109.318 18.8234 104.957 20.0536 104.957 24.6759C104.957 27.5462 106.262 28.9254 108.461 28.9254Z" fill="black"/>
<path d="M11.5905 1.63885L11.5058 1.66707L11.5066 1.6692L11.5905 1.63885ZM19.8287 24.415L19.9126 24.3848L19.9126 24.3846L19.8287 24.415ZM24.0037 28.7391H24.0929V28.6511L24.0049 28.6499L24.0037 28.7391ZM24.0037 29V29.0892H24.0929V29H24.0037ZM14.7963 29H14.7071V29.0892H14.7963V29ZM14.7963 28.7391V28.6499H14.7071V28.7391H14.7963ZM18.5985 28.7391V28.8283H18.6878V28.7391H18.5985ZM18.5985 28.6272H18.6878V28.5702L18.6359 28.5462L18.5985 28.6272ZM16.6974 25.0859L16.6136 25.1165L16.6137 25.1167L16.6974 25.0859ZM15.691 22.3275L15.7748 22.2969L15.7714 22.2876L15.766 22.2793L15.691 22.3275ZM4.02332 18.6743L3.93414 18.6766L3.93414 18.6767L4.02332 18.6743ZM1.04118 21.0228L0.957316 20.9924L0.957312 20.9924L1.04118 21.0228ZM7.78828 2.42166L7.70474 2.39034L7.70441 2.39124L7.78828 2.42166ZM3.16596 1.30336H3.07675V1.39257H3.16596V1.30336ZM3.16596 1.04242V0.95321H3.07675V1.04242H3.16596ZM15.5791 22.0292L15.5045 22.0781L15.663 21.9989L15.5791 22.0292ZM8.31015 1.93707L8.39404 1.90672L8.37275 1.84785H8.31015V1.93707ZM8.2356 1.93707V1.84785H8.17302L8.15171 1.9067L8.2356 1.93707ZM1.3394 20.9855L1.25551 20.9551L1.25543 20.9554L1.3394 20.9855ZM3.72511 18.6743L3.63592 18.6765L3.63592 18.6765L3.72511 18.6743ZM11.5066 1.6692L19.7448 24.4453L19.9126 24.3846L11.6744 1.60851L11.5066 1.6692ZM19.7447 24.4451C20.0891 25.4038 20.3557 26.1546 20.6033 26.7399C20.8507 27.3248 21.0825 27.753 21.3606 28.0625C21.9249 28.6906 22.6619 28.8096 24.0024 28.8283L24.0049 28.6499C22.6615 28.6312 22.0007 28.508 21.4933 27.9432C21.2355 27.6563 21.013 27.2504 20.7676 26.6704C20.5225 26.0908 20.2579 25.3459 19.9126 24.3848L19.7447 24.4451ZM23.9145 28.7391V29H24.0929V28.7391H23.9145ZM24.0037 28.9108H14.7963V29.0892H24.0037V28.9108ZM14.8855 29V28.7391H14.7071V29H14.8855ZM14.7963 28.8283H18.5985V28.6499H14.7963V28.8283ZM18.6878 28.7391V28.6272H18.5093V28.7391H18.6878ZM18.6359 28.5462C18.1764 28.3341 17.919 28.0275 17.6732 27.4904C17.4234 26.9445 17.1941 26.1813 16.7812 25.0552L16.6137 25.1167C17.0209 26.2272 17.2575 27.0109 17.5109 27.5647C17.7684 28.1273 18.0515 28.473 18.5612 28.7082L18.6359 28.5462ZM16.7812 25.0554L15.7748 22.2969L15.6071 22.358L16.6136 25.1165L16.7812 25.0554ZM15.766 22.2793C14.6598 20.5544 13.1695 19.0452 11.5705 17.9667C9.97251 16.8888 8.25917 16.2367 6.70725 16.2367V16.4151C8.21203 16.4151 9.89087 17.049 11.4707 18.1146C13.0496 19.1795 14.5227 20.6711 15.6159 22.3756L15.766 22.2793ZM6.70725 16.2367C5.79892 16.2367 5.09438 16.4637 4.62076 16.8885C4.14538 17.3149 3.91498 17.9294 3.93414 18.6766L4.11251 18.672C4.09439 17.9655 4.31131 17.4058 4.73989 17.0214C5.17023 16.6354 5.8263 16.4151 6.70725 16.4151V16.2367ZM3.93414 18.6767C3.95366 19.4282 4.33608 19.9857 4.88157 20.4599C5.4235 20.931 6.13943 21.3304 6.83753 21.7604C8.24416 22.6267 9.60018 23.6286 9.60018 25.6451H9.7786C9.7786 23.5238 8.33886 22.4755 6.9311 21.6085C6.222 21.1717 5.52607 20.7837 4.99863 20.3252C4.47474 19.8698 4.13026 19.3556 4.1125 18.672L3.93414 18.6767ZM9.60018 25.6451C9.60018 26.6832 9.20017 27.5901 8.45654 28.2385C7.71205 28.8876 6.61618 29.2836 5.21618 29.2836V29.462C6.64922 29.462 7.78995 29.0564 8.5738 28.373C9.35853 27.6887 9.7786 26.7317 9.7786 25.6451H9.60018ZM5.21618 29.2836C3.77881 29.2836 2.1894 28.7949 1.24299 27.5346C0.299 26.2774 -0.0251009 24.2254 1.12505 21.0532L0.957312 20.9924C-0.203697 24.1945 0.105907 26.3174 1.10031 27.6417C2.09229 28.9628 3.74596 29.462 5.21618 29.462V29.2836ZM1.12505 21.0532L7.87214 2.45208L7.70441 2.39124L0.957316 20.9924L1.12505 21.0532ZM7.87181 2.45299C7.98635 2.14754 8.02544 1.83609 7.89455 1.59613C7.75984 1.34915 7.4668 1.21415 7.00546 1.21415V1.39257C7.43877 1.39257 7.64897 1.5185 7.73792 1.68157C7.83069 1.85166 7.81386 2.09936 7.70474 2.39034L7.87181 2.45299ZM7.00546 1.21415H3.16596V1.39257H7.00546V1.21415ZM3.25517 1.30336V1.04242H3.07675V1.30336H3.25517ZM3.16596 1.13163H10.6213V0.95321H3.16596V1.13163ZM10.6213 1.13163C11.1113 1.13163 11.4081 1.37382 11.5059 1.66706L11.6751 1.61064C11.5492 1.2329 11.1751 0.95321 10.6213 0.95321V1.13163ZM6.70725 16.1542C8.32259 16.1542 10.0102 16.8523 11.5529 17.9457C13.0948 19.0384 14.4851 20.5212 15.5045 22.0781L15.6538 21.9804C14.623 20.4061 13.2175 18.9067 11.6561 17.8001C10.0955 16.6941 8.37226 15.9757 6.70725 15.9757V16.1542ZM15.663 21.9989L8.39404 1.90672L8.22626 1.96742L15.4952 22.0596L15.663 21.9989ZM8.31015 1.84785H8.2356V2.02628H8.31015V1.84785ZM8.15171 1.9067L1.25551 20.9551L1.42328 21.0159L8.31948 1.96743L8.15171 1.9067ZM1.25543 20.9554C0.206813 23.8765 0.395257 25.9313 1.25997 27.2594C2.12476 28.5876 3.64936 29.1638 5.21618 29.1638V28.9853C3.68903 28.9853 2.23148 28.4245 1.4095 27.162C0.587441 25.8994 0.384478 23.9097 1.42336 21.0156L1.25543 20.9554ZM5.21618 29.1638C7.81685 29.1638 9.70405 27.6512 9.70405 25.6451H9.52563C9.52563 27.5158 7.7597 28.9853 5.21618 28.9853V29.1638ZM9.70405 25.6451C9.70405 23.595 8.2028 22.6027 6.74303 21.7473C6.00693 21.3159 5.28313 20.9206 4.73563 20.4408C4.19171 19.9641 3.83214 19.4127 3.81429 18.6722L3.63592 18.6765C3.65536 19.4829 4.05064 20.0778 4.61804 20.575C5.18184 21.069 5.92582 21.4752 6.65283 21.9012C8.11929 22.7605 9.52563 23.7065 9.52563 25.6451H9.70405ZM3.81429 18.6722C3.7962 17.9124 4.05786 17.2864 4.54863 16.8491C5.04074 16.4107 5.77238 16.1542 6.70725 16.1542V15.9757C5.741 15.9757 4.96293 16.2411 4.42994 16.7159C3.89559 17.192 3.61674 17.8706 3.63592 18.6765L3.81429 18.6722ZM32.863 20.8364L32.909 20.76L32.9088 20.7598L32.863 20.8364ZM29.6199 18.898L29.6657 18.8214L29.6655 18.8213L29.6199 18.898ZM31.3719 9.61608L31.3706 9.70528L31.3706 9.70528L31.3719 9.61608ZM38.2681 10.958L38.3567 10.9474L38.3503 10.8941L38.3002 10.8748L38.2681 10.958ZM38.9391 16.5496V16.6388H39.0397L39.0277 16.5389L38.9391 16.5496ZM38.6782 16.5496L38.59 16.563L38.6015 16.6388H38.6782V16.5496ZM31.4838 9.91429L31.4822 10.0035L31.4829 10.0035L31.4838 9.91429ZM31.4092 16.3259L31.4559 16.2499L31.4557 16.2498L31.4092 16.3259ZM35.1742 18.6371L35.2209 18.5611L35.2208 18.561L35.1742 18.6371ZM26.4514 27.7699L26.3629 27.7809L26.3691 27.8305L26.4146 27.8511L26.4514 27.7699ZM25.7432 22.1038V22.0146H25.6421L25.6546 22.1149L25.7432 22.1038ZM26.0041 22.1038L26.0924 22.0909L26.0812 22.0146H26.0041V22.1038ZM33.4594 29.1638C34.6408 29.1638 35.7332 28.9674 36.5326 28.4408C37.3385 27.91 37.8355 27.051 37.8355 25.7569H37.6571C37.6571 26.9976 37.1849 27.7975 36.4345 28.2918C35.6776 28.7903 34.6265 28.9853 33.4594 28.9853V29.1638ZM37.8355 25.7569C37.8355 24.7378 37.419 23.9791 36.5948 23.2306C35.776 22.4871 34.546 21.7459 32.909 20.76L32.817 20.9128C34.4604 21.9026 35.672 22.6338 36.4748 23.3627C37.2721 24.0867 37.6571 24.8004 37.6571 25.7569H37.8355ZM32.9088 20.7598L29.6657 18.8214L29.5742 18.9746L32.8172 20.913L32.9088 20.7598ZM29.6655 18.8213C28.47 18.1115 27.4473 17.4933 26.7212 16.7259C26 15.9636 25.5714 15.0534 25.5714 13.7538H25.393C25.393 15.1009 25.8404 16.0545 26.5916 16.8485C27.338 17.6374 28.3842 18.268 29.5744 18.9747L29.6655 18.8213ZM25.5714 13.7538C25.5714 12.3046 26.4205 11.2862 27.5765 10.6302C28.7344 9.97315 30.1906 9.68684 31.3706 9.70528L31.3733 9.52688C30.1676 9.50804 28.6789 9.79953 27.4884 10.4751C26.296 11.1517 25.393 12.2208 25.393 13.7538H25.5714ZM31.3706 9.70528C33.8566 9.74238 36.3064 10.2991 38.2361 11.0413L38.3002 10.8748C36.3531 10.1259 33.8824 9.56433 31.3733 9.52688L31.3706 9.70528ZM38.1796 10.9687L38.8506 16.5602L39.0277 16.5389L38.3567 10.9474L38.1796 10.9687ZM38.9391 16.4603H38.6782V16.6388H38.9391V16.4603ZM38.7664 16.5361C38.2395 13.0735 35.4519 9.86287 31.4846 9.82509L31.4829 10.0035C35.3437 10.0403 38.0732 13.1667 38.59 16.563L38.7664 16.5361ZM31.4853 9.8251C30.3969 9.80633 29.3832 9.96532 28.638 10.3475C27.8883 10.7319 27.406 11.3461 27.406 12.2255H27.5844C27.5844 11.4274 28.0153 10.8673 28.7194 10.5062C29.428 10.1428 30.4086 9.98498 31.4822 10.0035L31.4853 9.8251ZM27.406 12.2255C27.406 13.0379 27.7276 13.6748 28.3836 14.3117C29.035 14.9443 30.0224 15.583 31.3627 16.402L31.4557 16.2498C30.1121 15.4287 29.1425 14.8 28.5079 14.1837C27.8777 13.5719 27.5844 12.9786 27.5844 12.2255H27.406ZM31.3626 16.4019L35.1275 18.7131L35.2208 18.561L31.4559 16.2499L31.3626 16.4019ZM35.1274 18.713C36.5847 19.6098 37.7669 20.3308 38.5872 21.1511C39.4019 21.9658 39.8564 22.8758 39.8564 24.154H40.0348C40.0348 22.8229 39.5574 21.869 38.7133 21.0249C37.8748 20.1864 36.6712 19.4536 35.2209 18.5611L35.1274 18.713ZM39.8564 24.154C39.8564 25.5609 39.2359 26.8402 38.0636 27.7699C36.8901 28.7004 35.1592 29.2836 32.9376 29.2836V29.462C35.1892 29.462 36.9623 28.8709 38.1745 27.9097C39.3878 26.9475 40.0348 25.6174 40.0348 24.154H39.8564ZM32.9376 29.2836C30.5691 29.2836 28.8673 28.7666 26.4882 27.6886L26.4146 27.8511C28.8069 28.9352 30.5347 29.462 32.9376 29.462V29.2836ZM26.5399 27.7588L25.8317 22.0927L25.6546 22.1149L26.3629 27.7809L26.5399 27.7588ZM25.7432 22.193H26.0041V22.0146H25.7432V22.193ZM25.9158 22.1167C26.1612 23.7964 27.0751 25.5562 28.4105 26.8963C29.7463 28.2367 31.5105 29.1638 33.4594 29.1638V28.9853C31.5689 28.9853 29.8478 28.0858 28.5369 26.7703C27.2256 25.4544 26.3316 23.7288 26.0924 22.0909L25.9158 22.1167ZM54.1256 26.8007L54.1887 26.7376L54.1327 26.6815L54.0704 26.7306L54.1256 26.8007ZM54.2002 26.8752L54.2571 26.9439L54.3325 26.8814L54.2633 26.8121L54.2002 26.8752ZM44.5828 10.2498H44.672V10.1606H44.5828V10.2498ZM41.8243 10.2498H41.7351V10.339H41.8243V10.2498ZM41.8243 9.98885V9.89964H41.7351V9.98885H41.8243ZM47.4904 3.46541V3.3762H47.4012V3.46541H47.4904ZM47.7513 3.46541H47.8405V3.3762H47.7513V3.46541ZM47.7513 9.98885H47.6621V10.0781H47.7513V9.98885ZM52.8209 9.98885H52.9102V9.89964H52.8209V9.98885ZM52.8209 10.2498V10.339H52.9102V10.2498H52.8209ZM47.7513 10.2498V10.1606H47.6621V10.2498H47.7513ZM54.0625 26.8638L54.1371 26.9383L54.2633 26.8121L54.1887 26.7376L54.0625 26.8638ZM54.1433 26.8065C52.8355 27.8901 51.107 29.2836 48.9069 29.2836V29.462C51.18 29.462 52.9555 28.0224 54.2571 26.9439L54.1433 26.8065ZM48.9069 29.2836C47.5115 29.2836 46.4563 28.8161 45.749 28.0227C45.0404 27.2278 44.672 26.0955 44.672 24.7504H44.4936C44.4936 26.1266 44.8707 27.3055 45.6158 28.1414C46.3624 28.9789 47.4693 29.462 48.9069 29.462V29.2836ZM44.672 24.7504V10.2498H44.4936V24.7504H44.672ZM44.5828 10.1606H41.8243V10.339H44.5828V10.1606ZM41.9135 10.2498V9.98885H41.7351V10.2498H41.9135ZM41.8243 10.0781H42.4953V9.89964H41.8243V10.0781ZM42.4953 10.0781C44.4614 10.0781 45.7345 8.80629 46.5113 7.35637C47.2873 5.90773 47.5796 4.26231 47.5796 3.46541H47.4012C47.4012 4.23414 47.1156 5.85044 46.354 7.27211C45.5931 8.6925 44.3687 9.89964 42.4953 9.89964V10.0781ZM47.4904 3.55462H47.7513V3.3762H47.4904V3.55462ZM47.6621 3.46541V9.98885H47.8405V3.46541H47.6621ZM47.7513 10.0781H52.8209V9.89964H47.7513V10.0781ZM52.7317 9.98885V10.2498H52.9102V9.98885H52.7317ZM52.8209 10.1606H47.7513V10.339H52.8209V10.1606ZM47.6621 10.2498V25.4214H47.8405V10.2498H47.6621ZM47.6621 25.4214C47.6621 26.4774 47.9071 27.2665 48.3792 27.7922C48.8528 28.3195 49.542 28.5673 50.398 28.5673V28.3889C49.5765 28.3889 48.9423 28.1521 48.512 27.673C48.0801 27.1922 47.8405 26.4529 47.8405 25.4214H47.6621ZM50.398 28.5673C51.9976 28.5673 52.9515 27.8393 54.1808 26.8707L54.0704 26.7306C52.8395 27.7004 51.9296 28.3889 50.398 28.3889V28.5673ZM71.459 26.2042L71.5221 26.1412L71.459 26.0781L71.3959 26.1412L71.459 26.2042ZM71.5709 26.3161L71.6333 26.3798L71.6977 26.3168L71.6339 26.253L71.5709 26.3161ZM71.0863 17.146L71.0865 17.2352L71.1755 17.235V17.146H71.0863ZM56.6229 17.1833L56.6226 17.0941L56.5295 17.0943L56.5338 17.1874L56.6229 17.1833ZM66.1285 28.3663L66.1278 28.4555H66.1285V28.3663ZM56.6229 16.885H56.5337V16.9743H56.6229V16.885ZM68.0668 16.885V16.9743H68.1561V16.885H68.0668ZM71.3959 26.2673L71.5078 26.3792L71.6339 26.253L71.5221 26.1412L71.3959 26.2673ZM71.5085 26.2523C69.7702 27.9535 67.2942 29.2836 64.1528 29.2836V29.462C67.3484 29.462 69.8675 28.1081 71.6333 26.3798L71.5085 26.2523ZM64.1528 29.2836C59.0502 29.2836 54.2891 25.7003 54.2891 19.4944H54.1107C54.1107 25.8136 58.967 29.462 64.1528 29.462V29.2836ZM54.2891 19.4944C54.2891 13.2846 59.0544 9.70529 63.4445 9.70529V9.52687C58.9628 9.52687 54.1107 13.1793 54.1107 19.4944H54.2891ZM63.4445 9.70529C68.1996 9.70529 70.9971 13.1649 70.9971 17.146H71.1755C71.1755 13.0753 68.3068 9.52687 63.4445 9.52687V9.70529ZM71.086 17.0568L56.6226 17.0941L56.6231 17.2725L71.0865 17.2352L71.086 17.0568ZM56.5338 17.1874C56.8335 23.706 61.1835 28.4178 66.1278 28.4555L66.1291 28.2771C61.3069 28.2403 57.0087 23.6328 56.712 17.1792L56.5338 17.1874ZM66.1285 28.4555C68.5033 28.4555 70.3145 27.4749 71.5221 26.2673L71.3959 26.1412C70.2178 27.3193 68.4505 28.2771 66.1285 28.2771V28.4555ZM62.699 10.0487C60.9283 10.0487 59.385 10.6047 58.2841 11.6961C57.1829 12.7879 56.5337 14.4061 56.5337 16.5123H56.7121C56.7121 14.4435 57.3489 12.8745 58.4097 11.8228C59.4709 10.7708 60.9656 10.2272 62.699 10.2272V10.0487ZM56.5337 16.5123V16.885H56.7121V16.5123H56.5337ZM56.6229 16.9743H68.0668V16.7958H56.6229V16.9743ZM68.1561 16.885C68.1561 15.329 67.8565 13.6234 67.024 12.3037C66.188 10.9784 64.8179 10.0487 62.699 10.0487V10.2272C64.7551 10.2272 66.0689 11.1241 66.8731 12.3989C67.6808 13.6792 67.9776 15.3471 67.9776 16.885H68.1561ZM88.7889 10.9953L88.8775 11.0059L88.8827 10.9629L88.852 10.9322L88.7889 10.9953ZM88.118 16.5868V16.676H88.1971L88.2065 16.5975L88.118 16.5868ZM87.8943 16.5868L87.8056 16.5771L87.7948 16.676H87.8943V16.5868ZM79.0224 12.7101L78.9721 12.6364L78.9332 12.663V12.7101H79.0224ZM81.93 28.7391H82.0192V28.6499H81.93V28.7391ZM81.93 29V29.0892H82.0192V29H81.93ZM74.1765 29H74.0872V29.0892H74.1765V29ZM74.1765 28.7391V28.6499H74.0872V28.7391H74.1765ZM76.4503 28.7391V28.8283H76.5395V28.7391H76.4503ZM76.4503 28.6272H76.5395V28.5654L76.4817 28.5437L76.4503 28.6272ZM74.1019 10.3616L74.0927 10.2729L74.092 10.273L74.1019 10.3616ZM73.4309 10.4362H73.3417V10.5358L73.4408 10.5248L73.4309 10.4362ZM73.4309 10.1752L73.4195 10.0868L73.3417 10.0968V10.1752H73.4309ZM78.9106 9.46697H78.9998V9.36549L78.8992 9.3785L78.9106 9.46697ZM78.9106 12.4491H78.8214V12.6178L78.9608 12.5229L78.9106 12.4491ZM85.024 9.70529C87.1184 9.70529 88.4389 10.7715 88.7259 11.0584L88.852 10.9322C88.5425 10.6228 87.1792 9.52687 85.024 9.52687V9.70529ZM88.7004 10.9847L88.0294 16.5762L88.2065 16.5975L88.8775 11.0059L88.7004 10.9847ZM88.118 16.4976H87.8943V16.676H88.118V16.4976ZM87.983 16.5966C88.3237 13.4926 86.0517 10.8316 83.1602 10.8316V11.01C85.9347 11.01 88.1359 13.5677 87.8056 16.5771L87.983 16.5966ZM83.1602 10.8316C81.7118 10.8316 80.3848 11.6698 78.9721 12.6364L79.0728 12.7837C80.4931 11.8119 81.7755 11.01 83.1602 11.01V10.8316ZM78.9332 12.7101V24.415H79.1116V12.7101H78.9332ZM78.9332 24.415C78.9332 25.4949 78.9378 26.3097 78.9895 26.9223C79.0409 27.5325 79.1398 27.9584 79.3404 28.2492C79.5456 28.5468 79.8473 28.6897 80.2659 28.7595C80.6803 28.8286 81.2249 28.8283 81.93 28.8283V28.6499C81.2186 28.6499 80.6915 28.6496 80.2952 28.5835C79.903 28.5181 79.6548 28.3909 79.4873 28.1479C79.3151 27.8982 79.2183 27.5133 79.1672 26.9073C79.1164 26.3038 79.1116 25.4971 79.1116 24.415H78.9332ZM81.8408 28.7391V29H82.0192V28.7391H81.8408ZM81.93 28.9108H74.1765V29.0892H81.93V28.9108ZM74.2657 29V28.7391H74.0872V29H74.2657ZM74.1765 28.8283H76.4503V28.6499H74.1765V28.8283ZM76.5395 28.7391V28.6272H76.3611V28.7391H76.5395ZM76.4817 28.5437C76.3611 28.4985 76.2634 28.3963 76.1854 28.2393C76.1073 28.0819 76.0532 27.8777 76.0166 27.6442C75.9433 27.1771 75.9431 26.6161 75.9431 26.1297H75.7647C75.7647 26.6125 75.7645 27.1884 75.8403 27.6719C75.8783 27.9137 75.936 28.1381 76.0256 28.3186C76.1154 28.4994 76.2414 28.6441 76.419 28.7108L76.4817 28.5437ZM75.9431 26.1297V11.6663H75.7647V26.1297H75.9431ZM75.9431 11.6663C75.9431 11.2967 75.9456 11.0101 75.9204 10.7967C75.8952 10.5836 75.8399 10.4182 75.7029 10.3139C75.57 10.2128 75.3796 10.185 75.1295 10.188C74.8762 10.1909 74.5381 10.2265 74.0927 10.2729L74.1111 10.4503C74.5604 10.4036 74.8886 10.3692 75.1316 10.3664C75.3777 10.3635 75.5135 10.394 75.5949 10.4559C75.6722 10.5147 75.7195 10.6173 75.7432 10.8177C75.7669 11.0178 75.7647 11.2904 75.7647 11.6663H75.9431ZM74.092 10.273L73.4211 10.3475L73.4408 10.5248L74.1118 10.4503L74.092 10.273ZM73.5201 10.4362V10.1752H73.3417V10.4362H73.5201ZM73.4424 10.2637L78.922 9.55545L78.8992 9.3785L73.4195 10.0868L73.4424 10.2637ZM78.8214 9.46697V12.4491H78.9998V9.46697H78.8214ZM78.9608 12.5229C79.8411 11.9235 80.7851 11.2199 81.8005 10.6635C82.8145 10.1079 83.8895 9.70529 85.024 9.70529V9.52687C83.8473 9.52687 82.7417 9.94435 81.7147 10.507C80.6893 11.0689 79.7321 11.7819 78.8604 12.3754L78.9608 12.5229ZM91.0136 10.4362H90.9244V10.539L91.0262 10.5245L91.0136 10.4362ZM91.0136 10.1752L91.0024 10.0867L90.9244 10.0966V10.1752H91.0136ZM96.6051 9.46697H96.6943V9.36575L96.5939 9.37847L96.6051 9.46697ZM99.5127 28.7391H99.6019V28.6499H99.5127V28.7391ZM99.5127 29V29.0892H99.6019V29H99.5127ZM91.7591 29H91.6699V29.0892H91.7591V29ZM91.7591 28.7391V28.6499H91.6699V28.7391H91.7591ZM94.033 28.7391V28.8283H94.1222V28.7391H94.033ZM94.033 28.6272H94.1222V28.5654L94.0644 28.5437L94.033 28.6272ZM91.7964 10.3243L91.809 10.4127L91.8094 10.4126L91.7964 10.3243ZM94.7786 6.88022C93.7107 6.88022 92.9294 6.06393 92.9294 5.03104H92.751C92.751 6.1602 93.6099 7.05864 94.7786 7.05864V6.88022ZM92.9294 5.03104C92.9294 3.95975 93.7118 3.14458 94.7786 3.14458V2.96616C93.6088 2.96616 92.751 3.86572 92.751 5.03104H92.9294ZM94.7786 3.14458C95.8476 3.14458 96.665 3.962 96.665 5.03104H96.8434C96.8434 3.86346 95.9461 2.96616 94.7786 2.96616V3.14458ZM96.665 5.03104C96.665 6.06168 95.8487 6.88022 94.7786 6.88022V7.05864C95.945 7.05864 96.8434 6.16244 96.8434 5.03104H96.665ZM91.1028 10.4362V10.1752H90.9244V10.4362H91.1028ZM91.0248 10.2637L96.6163 9.55548L96.5939 9.37847L91.0024 10.0867L91.0248 10.2637ZM96.5159 9.46697V24.415H96.6943V9.46697H96.5159ZM96.5159 24.415C96.5159 25.4949 96.5205 26.3097 96.5721 26.9223C96.6236 27.5325 96.7225 27.9584 96.9231 28.2492C97.1283 28.5468 97.43 28.6897 97.8486 28.7595C98.263 28.8286 98.8076 28.8283 99.5127 28.8283V28.6499C98.8013 28.6499 98.2742 28.6496 97.8779 28.5835C97.4857 28.5181 97.2375 28.3909 97.07 28.1479C96.8978 27.8982 96.801 27.5133 96.7499 26.9073C96.6991 26.3038 96.6943 25.4971 96.6943 24.415H96.5159ZM99.4235 28.7391V29H99.6019V28.7391H99.4235ZM99.5127 28.9108H91.7591V29.0892H99.5127V28.9108ZM91.8484 29V28.7391H91.6699V29H91.8484ZM91.7591 28.8283H94.033V28.6499H91.7591V28.8283ZM94.1222 28.7391V28.6272H93.9438V28.7391H94.1222ZM94.0644 28.5437C93.9438 28.4985 93.8461 28.3963 93.7681 28.2393C93.69 28.0819 93.6359 27.8777 93.5993 27.6442C93.526 27.1771 93.5258 26.6161 93.5258 26.1297H93.3474C93.3474 26.6125 93.3472 27.1884 93.423 27.6719C93.461 27.9137 93.5187 28.1381 93.6083 28.3186C93.6981 28.4994 93.8241 28.6441 94.0017 28.7108L94.0644 28.5437ZM93.5258 26.1297V11.1817H93.3474V26.1297H93.5258ZM93.5258 11.1817C93.5258 10.9266 93.5025 10.7224 93.4418 10.5649C93.3794 10.4028 93.2774 10.2906 93.128 10.2242C92.9837 10.16 92.8021 10.1418 92.5845 10.149C92.3657 10.1561 92.1004 10.1895 91.7834 10.2361L91.8094 10.4126C92.1262 10.366 92.3827 10.3341 92.5903 10.3273C92.799 10.3205 92.9483 10.3395 93.0556 10.3872C93.1578 10.4326 93.2282 10.5068 93.2753 10.629C93.3241 10.7557 93.3474 10.9336 93.3474 11.1817H93.5258ZM91.7838 10.236L91.001 10.3479L91.0262 10.5245L91.809 10.4127L91.7838 10.236ZM118.488 28.329L118.505 28.4167L118.506 28.4165L118.488 28.329ZM119.607 28.1054H119.696V27.9965L119.589 28.0179L119.607 28.1054ZM119.607 28.3663L119.624 28.4538L119.696 28.4396V28.3663H119.607ZM113.754 29.5219H113.665V29.6304L113.771 29.6094L113.754 29.5219ZM113.754 27.0616H113.843V26.872L113.697 26.9929L113.754 27.0616ZM113.68 18.488V18.5772H113.769V18.488H113.68ZM103.727 16.5496V16.6388H103.826L103.815 16.5398L103.727 16.5496ZM103.503 16.5496L103.414 16.5602L103.424 16.6388H103.503V16.5496ZM102.832 10.958L102.801 10.8743L102.735 10.8987L102.744 10.9687L102.832 10.958ZM113.68 26.8007L113.739 26.8672L113.769 26.8406V26.8007H113.68ZM113.68 18.7489H113.769V18.6581L113.678 18.6597L113.68 18.7489ZM118.506 28.4165L119.624 28.1928L119.589 28.0179L118.471 28.2415L118.506 28.4165ZM119.517 28.1054V28.3663H119.696V28.1054H119.517ZM119.589 28.2788L113.737 29.4344L113.771 29.6094L119.624 28.4538L119.589 28.2788ZM113.843 29.5219V27.0616H113.665V29.5219H113.843ZM113.697 26.9929C112.625 27.8806 110.557 29.2836 107.417 29.2836V29.462C110.615 29.462 112.722 28.0319 113.811 27.1303L113.697 26.9929ZM107.417 29.2836C106.185 29.2836 104.787 28.8968 103.699 28.1258C102.614 27.3562 101.84 26.2071 101.84 24.6759H101.662C101.662 26.2759 102.473 27.4752 103.596 28.2713C104.717 29.0659 106.152 29.462 107.417 29.462V29.2836ZM101.84 24.6759C101.84 22.1436 103.777 20.6183 106.25 19.7228C108.72 18.8284 111.69 18.5772 113.68 18.5772V18.3987C111.68 18.3987 108.687 18.6507 106.189 19.555C103.695 20.4581 101.662 22.0267 101.662 24.6759H101.84ZM113.769 18.488C113.769 16.127 113.77 13.9653 113.209 12.3958C112.927 11.6075 112.502 10.9622 111.859 10.515C111.216 10.0679 110.365 9.82508 109.244 9.82508V10.0035C110.34 10.0035 111.152 10.2406 111.757 10.6614C112.362 11.082 112.768 11.6924 113.041 12.4558C113.589 13.9896 113.59 16.1148 113.59 18.488H113.769ZM109.244 9.82508C107.293 9.82508 105.804 10.7353 104.848 12.0327C103.893 13.3281 103.468 15.0094 103.638 16.5593L103.815 16.5398C103.65 15.033 104.064 13.3967 104.991 12.1386C105.917 10.8826 107.355 10.0035 109.244 10.0035V9.82508ZM103.727 16.4603H103.503V16.6388H103.727V16.4603ZM103.592 16.5389L102.921 10.9474L102.744 10.9687L103.414 16.5602L103.592 16.5389ZM102.863 11.0418C103.566 10.7828 104.773 10.4484 106.042 10.1786C107.313 9.90869 108.638 9.70529 109.579 9.70529V9.52687C108.619 9.52687 107.279 9.73351 106.005 10.0041C104.731 10.2748 103.515 10.6114 102.801 10.8743L102.863 11.0418ZM109.579 9.70529C111.501 9.70529 113.294 10.2504 114.606 11.5162C115.916 12.7811 116.759 14.7775 116.759 17.7051H116.937C116.937 14.743 116.084 12.6949 114.729 11.3878C113.376 10.0814 111.534 9.52687 109.579 9.52687V9.70529ZM116.759 17.7051V27.2107H116.937V17.7051H116.759ZM116.759 27.2107C116.759 27.4892 116.763 27.7251 116.796 27.9145C116.83 28.1047 116.894 28.2619 117.024 28.3698C117.154 28.477 117.334 28.5229 117.57 28.5266C117.807 28.5302 118.112 28.4915 118.505 28.4167L118.472 28.2414C118.082 28.3157 117.791 28.3515 117.573 28.3482C117.355 28.3448 117.223 28.3022 117.138 28.2323C117.054 28.1631 117.002 28.0547 116.972 27.8839C116.942 27.7121 116.937 27.4914 116.937 27.2107H116.759ZM108.461 29.0147C110.578 29.0147 112.685 27.8081 113.739 26.8672L113.62 26.7341C112.586 27.6571 110.519 28.8362 108.461 28.8362V29.0147ZM113.769 26.8007V18.7489H113.59V26.8007H113.769ZM113.678 18.6597C111.492 18.6971 109.294 19.0237 107.64 19.9287C106.811 20.3819 106.117 20.9811 105.631 21.7631C105.144 22.5454 104.868 23.5057 104.868 24.6759H105.046C105.046 23.5349 105.315 22.6081 105.782 21.8574C106.25 21.1063 106.919 20.5267 107.726 20.0852C109.342 19.201 111.506 18.8753 113.681 18.8381L113.678 18.6597ZM104.868 24.6759C104.868 26.123 105.196 27.2093 105.816 27.935C106.438 28.663 107.342 29.0147 108.461 29.0147V28.8362C107.381 28.8362 106.532 28.4983 105.952 27.8191C105.37 27.1376 105.046 26.0991 105.046 24.6759H104.868Z" fill="black" mask="url(#path-1-outside-1_1004_51)"/>
</svg>
