<svg width="94" height="152" viewBox="0 0 94 152" fill="none" xmlns="http://www.w3.org/2000/svg">
<path fill-rule="evenodd" clip-rule="evenodd" d="M64.522 0.0653255C64.4786 0.0978809 64.1965 0.162992 63.8709 0.217251C63.5562 0.271509 62.9594 0.390879 62.5362 0.488545C62.1238 0.586211 61.6029 0.716433 61.3967 0.75984C61.0495 0.846654 59.324 1.30243 58.521 1.51947C57.8916 1.69309 56.6762 2.08376 56.4049 2.19228C55.9166 2.39846 55.7104 2.47442 55.1027 2.66975C54.7771 2.76742 54.4082 2.88679 54.2888 2.94105C53.8005 3.13638 53.0191 3.36427 52.8238 3.36427C52.7153 3.36427 52.5959 3.40768 52.5634 3.46193C52.5308 3.51619 52.368 3.5813 52.2052 3.61386C52.0316 3.64642 51.6844 3.73323 51.4131 3.79834C51.1418 3.86345 50.5883 3.99367 50.1651 4.08049C49.7527 4.1673 49.2102 4.28667 48.9714 4.34093C48.7327 4.39519 48.2444 4.49285 47.8862 4.54711C47.5281 4.61222 46.9964 4.70989 46.6925 4.775C46.3995 4.84011 44.8369 4.91607 43.22 4.93778C38.9878 4.99204 34.1262 5.17652 33.1495 5.30674C32.1294 5.43696 31.283 5.71911 30.0242 6.33766C28.1034 7.29262 26.888 8.44291 26.1393 10.0164C25.4556 11.4706 25.3471 12.0131 25.2928 14.1075C25.2494 15.7462 25.3796 16.8639 25.7052 17.6561C25.7594 17.7971 25.8463 18.0142 25.9005 18.1444C26.3563 19.3598 27.3872 21.3891 28.1251 22.5502C28.2771 22.7998 28.4073 23.0494 28.4073 23.1037C28.4073 23.1579 28.4507 23.223 28.4941 23.2447C28.5484 23.2556 28.7111 23.4835 28.8631 23.7439L29.1344 24.2106L27.8647 25.4802C26.378 26.9669 25.7269 27.8133 25.0649 29.083C24.8045 29.593 24.5549 30.038 24.5223 30.0814C24.4789 30.1248 23.8821 29.9729 23.1984 29.745C22.5148 29.5171 21.6792 29.2675 21.3536 29.1915C21.0281 29.1156 20.6591 29.0179 20.5397 28.9636C20.3119 28.8768 20.225 28.8551 18.5864 28.5838C16.5788 28.2474 16.0471 28.1932 14.2457 28.1389C12.4009 28.0955 11.9017 28.1389 10.6104 28.5079C9.87243 28.7249 9.50347 28.9311 8.22296 29.8101C7.55015 30.2767 6.19368 31.5789 5.55342 32.3819C4.8372 33.2826 4.27291 34.3136 3.9148 35.377C3.67606 36.115 3.64351 38.09 3.87139 38.9039C4.19695 40.0542 3.9365 43.1578 3.43732 44.0802C3.38306 44.1887 3.33966 44.3515 3.33966 44.4383C3.33966 44.5251 3.29625 44.6879 3.24199 44.7964C3.17688 44.8941 3.04666 45.2739 2.94899 45.632C2.85133 45.9901 2.7211 46.3265 2.66685 46.3808C2.62344 46.4459 2.58003 46.5761 2.58003 46.6846C2.58003 46.7931 2.53662 46.9667 2.48237 47.0753C2.42811 47.1729 2.29788 47.531 2.20022 47.8566C2.10255 48.1822 1.98318 48.5511 1.93978 48.6705C1.88552 48.7898 1.7553 49.2022 1.65763 49.5929C1.55996 49.9835 1.42974 50.3959 1.38633 50.5153C1.33208 50.6347 1.26697 50.8734 1.22356 51.0579C1.191 51.2315 1.08248 51.7198 0.99567 52.1431C0.898004 52.5554 0.778635 53.1197 0.724376 53.391C0.659265 53.6623 0.561599 54.1181 0.496488 54.4219C0.442229 54.7149 0.366267 55.8869 0.333711 57.0264C0.236045 60.8353 0.648413 62.2678 2.363 64.0041C3.52414 65.176 4.28376 65.5233 5.92238 65.6101C7.01841 65.6644 8.33148 65.545 9.85073 65.2303C10.5886 65.0892 12.6179 64.5249 13.052 64.3513C13.1714 64.3079 13.4427 64.1994 13.6489 64.1343C13.855 64.0583 14.3325 63.8521 14.7123 63.6785C15.0921 63.494 15.4285 63.3855 15.472 63.4181C15.5045 63.4615 15.4394 63.8413 15.3309 64.2753C15.0379 65.3605 15.0379 67.52 15.32 68.3665C16.5137 71.839 20.7568 74.9752 26.2912 76.451C27.7453 76.8417 28.5809 77.0153 29.7095 77.1781C30.99 77.3518 35.7756 77.4169 36.6546 77.2758C37.0453 77.2107 37.729 77.113 38.1739 77.0479C39.0312 76.9285 39.6714 76.8092 40.3985 76.6247C40.6372 76.5704 41.1798 76.4511 41.5922 76.3534C42.0154 76.2666 42.5255 76.1472 42.7316 76.0929C43.5238 75.8759 44.7501 75.5069 44.9563 75.4201C45.2818 75.2899 45.7159 75.1488 46.8011 74.8124C47.3437 74.6497 47.832 74.476 47.8862 74.4326C47.9514 74.3892 48.1792 74.3241 48.4071 74.2807C48.6242 74.2373 48.8412 74.1613 48.8738 74.1071C48.9063 74.0528 49.0474 74.0094 49.1993 74.0094C49.3404 74.0094 49.5466 73.966 49.6551 73.9117C49.7527 73.8575 50.1543 73.7273 50.5449 73.6296C50.9356 73.5319 51.3371 73.4017 51.4348 73.3474C51.5433 73.2932 52.4657 73.2498 53.4858 73.2498H55.3414L56.4374 72.1212C57.425 71.112 58.6295 70.1896 59.4434 69.8098C59.5953 69.7338 60.1596 69.5493 60.6913 69.3865C61.2339 69.2238 61.7223 69.0501 61.7765 69.0067C61.8416 68.9742 62.0587 68.8982 62.2649 68.8548C62.471 68.8114 62.7098 68.7354 62.8074 68.6812C62.8943 68.6378 63.3609 68.4641 63.8384 68.3122C64.3158 68.1494 64.8042 67.9758 64.9235 67.9324C65.0429 67.8781 65.4227 67.7045 65.77 67.5526C66.4428 67.2704 67.6148 66.5217 68.2008 66.0116C68.3853 65.8489 68.8519 65.469 69.2317 65.1652C69.6115 64.8722 70.1867 64.373 70.5122 64.0692C71.2827 63.353 72.0206 62.7018 72.3462 62.4414C72.4872 62.3329 72.7585 62.105 72.943 61.9531C74.191 60.9221 75.9815 59.7936 77.7287 58.9363C79.4541 58.1007 79.4215 58.1115 80.2246 57.8945C81.6136 57.5038 82.4926 57.3302 83.8057 57.1783C85.4117 56.9938 85.6396 56.9612 85.8675 56.8744C85.9869 56.8202 86.3016 56.7117 86.562 56.6357C87.5061 56.3535 88.5913 55.4311 89.3401 54.27C89.6114 53.8576 89.8284 53.4453 89.8284 53.3693C89.8284 53.2825 89.8718 53.174 89.9152 53.1197C90.0997 52.9027 90.295 51.7741 90.2299 51.2532C90.1214 50.4068 89.8284 49.1588 89.3835 47.6396C89.1447 46.8365 88.7107 46.142 88.3091 45.9141C87.6472 45.5452 87.0503 45.6103 85.9977 46.1637C84.2289 47.1078 84.0227 47.2272 83.925 47.3249C83.8599 47.3791 83.708 47.4225 83.5778 47.4225C83.4367 47.4225 83.3065 47.4659 83.2631 47.5202C83.2305 47.5745 83.046 47.6613 82.8615 47.7047C82.6662 47.7372 82.4383 47.8132 82.3407 47.8566C82.0043 48.0302 81.6136 48.1713 80.7129 48.4534C80.2029 48.6162 79.6928 48.7898 79.5735 48.8333C78.3255 49.3216 71.923 49.3433 71.923 48.8767C71.923 48.7898 71.9772 48.7247 72.0315 48.7247C72.0966 48.7247 72.3462 48.5945 72.5958 48.4426C73.3337 47.976 74.1367 47.5202 74.3429 47.4551C74.4406 47.4225 74.5274 47.3574 74.5274 47.3032C74.5274 47.2489 74.5816 47.2055 74.6359 47.2055C74.7878 47.2055 76.6869 46.0118 77.6201 45.3173C78.4232 44.7313 78.5859 44.6119 79.1285 44.167C79.313 44.0042 79.8339 43.6135 80.2788 43.2771C80.7237 42.9516 81.2989 42.5067 81.5376 42.3113C81.7872 42.1051 82.243 41.747 82.5577 41.5083C84.2397 40.2278 87.0178 37.58 88.2115 36.1258C89.8935 34.064 91.3476 32.0672 91.3476 31.8068C91.3476 31.7417 91.4019 31.6874 91.4562 31.6874C91.5213 31.6874 91.5647 31.644 91.5647 31.5898C91.5647 31.5355 91.8034 31.0906 92.1073 30.6023C92.4003 30.1139 92.8778 29.2458 93.1599 28.6706L93.6808 27.618L93.6699 25.5345C93.6591 23.2122 93.5506 22.5068 92.8669 20.4016C92.7584 20.076 92.5956 19.5117 92.4871 19.1536C92.3894 18.7955 92.27 18.4048 92.2266 18.2855C91.836 17.2871 91.684 16.05 91.5538 12.7511C91.4128 9.05061 91.2934 8.18246 90.8268 7.67243C90.5446 7.35773 89.3075 6.67406 88.5587 6.41362C87.951 6.19659 87.7231 6.17488 86.1171 6.21829C85.1404 6.23999 84.1312 6.31595 83.8599 6.38107C82.5251 6.69577 82.319 6.77173 81.0927 7.32517C80.7997 7.45539 80.3114 7.67243 80.0075 7.8135C79.7145 7.94372 78.9006 8.32353 78.217 8.64909C76.0575 9.66916 75.7319 9.79938 73.5941 10.4288C73.4096 10.483 73.0841 10.5264 72.8779 10.5264H72.4872L72.4221 9.89704C72.3896 9.56064 72.3136 8.7359 72.2594 8.0848C72.1183 6.53299 71.847 5.26333 71.5757 4.93778C71.5323 4.88352 71.4889 4.775 71.4889 4.69904C71.4889 4.36263 70.4797 2.51783 70.0564 2.06205C68.9821 0.922617 68.331 0.553656 66.649 0.119584C66.1823 -0.010637 64.6197 -0.0431923 64.522 0.0653255ZM66.9854 0.87921C67.0396 0.933469 67.1699 0.976876 67.2675 0.976876C67.6148 0.976876 68.6023 1.57372 69.2317 2.14887C69.9045 2.77827 70.1867 3.21234 70.7292 4.51456C71.3804 6.07722 71.5757 7.04303 71.6734 9.14827L71.7276 10.4288L71.2501 10.3528C71.0005 10.3203 70.6099 10.2443 70.4037 10.1792C70.013 10.0598 68.1357 9.33275 67.4954 9.03975C66.2692 8.49716 64.6957 8.32354 63.7841 8.63824C63.057 8.88783 62.6989 9.0506 62.6989 9.13742C62.6989 9.19168 62.623 9.22423 62.5362 9.22423C62.2757 9.22423 60.7239 10.8411 60.1813 11.6767C59.0093 13.4998 58.6621 14.4222 57.9784 17.6344C57.8265 18.3723 57.7071 19.2187 57.5986 20.4016C57.5335 21.0852 57.4358 22.1162 57.3816 22.6805C57.2405 24.0044 57.2405 25.8166 57.3816 27.1297C57.4358 27.694 57.5443 29.2783 57.6094 30.6565C57.6746 32.0238 57.7722 33.6191 57.8265 34.1833C57.8699 34.7476 57.9567 35.9196 58.011 36.7878C58.0652 37.6559 58.152 38.6434 58.1954 38.9798C58.3257 40.0325 57.9784 40.5316 56.8932 40.868C56.5351 40.9766 55.8623 41.2587 55.3957 41.4866C53.8222 42.2462 52.2487 44.1561 51.1635 46.6303L51.055 46.8691L50.7403 46.6086C50.2085 46.1529 49.5466 46.1203 48.7869 46.4893C48.6025 46.5869 48.4071 46.6629 48.3529 46.6629C48.2226 46.6629 48.3203 43.2012 48.4614 42.485C48.5265 42.1811 48.6567 41.6277 48.7435 41.237C48.8412 40.8463 48.9714 40.2821 49.0365 39.9891C49.0908 39.6852 49.1885 39.2294 49.2536 38.9581C49.3512 38.4915 49.5791 37.287 49.7962 36.0281C50.1434 34.0748 50.1868 30.5263 49.883 29.2349C49.514 27.618 49.3404 27.0971 48.8303 26.0445C48.0599 24.4276 47.3002 23.6788 45.5531 22.7781C44.2834 22.1162 43.7409 21.91 41.5814 21.2589C41.0388 21.0961 38.2064 21.0201 37.2515 21.1503C35.4609 21.3782 34.4951 21.617 33.1929 22.1596C32.3682 22.5068 30.5017 23.4509 30.0893 23.7222C29.9699 23.809 29.8289 23.8741 29.7638 23.8741C29.6661 23.8741 28.722 22.4417 28.0166 21.2155C27.0508 19.5226 26.302 17.7429 25.9873 16.3864C25.8463 15.7462 25.8463 12.8921 25.9873 12.2627C26.2912 11.0039 26.3889 10.7652 26.9857 9.71256C27.7996 8.30183 28.9933 7.37943 31.2287 6.42447C32.6069 5.84933 34.4409 5.68655 41.2667 5.57803C45.3795 5.51292 48.0165 5.30674 48.7544 4.99204C48.9606 4.91607 50.903 4.50371 51.7169 4.37349C51.9123 4.34093 52.0967 4.27582 52.1293 4.22156C52.1618 4.1673 52.2704 4.12389 52.3789 4.12389C52.6176 4.12389 53.6594 3.82004 53.9307 3.67897C54.0392 3.62471 54.202 3.5813 54.2888 3.5813C54.3756 3.5813 54.5384 3.5379 54.6469 3.48364C54.7446 3.41853 55.1244 3.28831 55.4825 3.19064C55.8406 3.08212 56.1879 2.9736 56.2421 2.9302C56.3072 2.88679 56.7956 2.72401 57.3273 2.55038C57.8699 2.38761 58.3799 2.22483 58.4667 2.19228C58.6295 2.13802 59.5736 1.88843 60.0945 1.77991C60.2464 1.74735 60.4635 1.68224 60.5828 1.62798C60.7022 1.58458 61.1905 1.45435 61.668 1.35669C62.1455 1.25902 62.6555 1.13965 62.8074 1.08539C63.2415 0.94432 64.229 0.75984 64.7608 0.716433C65.4661 0.662174 66.8552 0.770692 66.9854 0.87921ZM88.6347 7.2275C89.3835 7.54221 90.1214 8.00883 90.371 8.29098C90.5772 8.55142 90.6965 9.69086 90.8051 12.5883C90.9353 16.1911 91.0763 17.439 91.467 18.394C91.5104 18.5134 91.6298 18.904 91.7383 19.2621C91.836 19.6202 91.9553 20.0001 92.0096 20.0977C92.0639 20.2062 92.1073 20.369 92.1073 20.4558C92.1073 20.5426 92.1507 20.7054 92.2049 20.8139C92.3135 21.0093 92.5522 21.834 92.7475 22.6805C92.8018 22.9517 92.9103 23.885 92.9863 24.764C93.1599 26.9452 93.0514 27.401 91.836 29.5713C91.6732 29.8643 91.4562 30.2333 91.3476 30.3852C91.25 30.5371 91.1306 30.7325 91.0981 30.8193C90.8702 31.3293 89.4703 33.3478 88.5479 34.498C88.3308 34.7693 88.0704 35.084 87.9836 35.2034C87.8968 35.3228 87.3976 35.8871 86.8767 36.4622C85.1947 38.3396 83.2522 40.0759 80.4416 42.2137C79.2696 43.1035 78.2604 43.8848 78.217 43.95C77.9782 44.2538 72.5632 47.7481 72.3136 47.7481C72.3028 47.7481 71.847 48.0085 71.3044 48.3341L70.3386 48.9201L68.0597 48.9635C66.5513 48.996 65.6615 49.0611 65.4119 49.1588C65.2057 49.2348 64.9344 49.3324 64.815 49.3758C64.4678 49.4952 63.35 50.027 63.209 50.1355C62.1563 50.9385 61.375 51.9369 61.0169 52.9027C60.9084 53.1957 60.789 53.4887 60.7456 53.5538C60.7022 53.608 60.6045 53.901 60.5177 54.194C60.3658 54.7149 60.2139 54.8994 59.2806 55.6156C59.0419 55.7892 58.6946 56.0714 58.5101 56.2342C58.3257 56.4078 58.1303 56.538 58.0869 56.538C58.0001 56.538 58.0435 56.1474 58.304 54.8017C58.5861 53.2933 58.6838 52.729 58.7923 51.9803C58.9008 51.2966 59.0961 47.9109 59.107 46.6086C59.1178 45.9684 59.1287 45.9358 59.7581 45.2522C60.1053 44.8615 60.6696 44.1453 61.006 43.6461C61.5486 42.8431 61.6138 42.6911 61.6138 42.1811C61.6138 41.8013 61.5378 41.4975 61.3859 41.237C60.9192 40.4665 60.5611 40.2603 59.6713 40.2603C59.0853 40.2603 59.0093 40.2386 59.0093 40.0542C59.0093 39.9348 59.1178 39.7069 59.2589 39.5333C59.3891 39.3705 59.5736 39.1209 59.6604 39.0015C59.7472 38.8713 60.3658 38.0249 61.0169 37.1133C61.6789 36.2126 62.3191 35.3228 62.4602 35.1275C63.1656 34.1182 63.3066 33.9229 63.4043 33.7601C63.4694 33.6625 63.5454 33.5648 63.5779 33.5322C63.6105 33.4997 64.0445 32.7943 64.5437 31.9587C65.0429 31.1231 65.6289 30.1356 65.8677 29.7558C66.0955 29.376 66.28 29.0504 66.28 29.0179C66.28 28.9853 66.4428 28.714 66.6381 28.3993C67.4846 27.0863 69.427 23.2447 69.427 22.8975C69.427 22.8324 69.4813 22.6913 69.5356 22.5719C69.6007 22.4526 69.6983 22.2572 69.7526 22.1379C69.8177 22.0185 69.8611 21.8666 69.8611 21.8015C69.8611 21.7363 69.9371 21.5085 70.0347 21.2914C70.306 20.662 70.3711 20.4884 70.5665 19.9132C70.675 19.6094 70.7944 19.273 70.8378 19.1536C71.1633 18.3289 71.3369 17.6886 71.7059 15.8438C71.8361 15.2253 72.1291 13.4673 72.2485 12.6968C72.4547 11.3078 72.4438 11.3186 72.943 11.2318C74.5816 10.9605 75.211 10.7869 75.9598 10.4071C76.0683 10.3528 76.1985 10.3094 76.2528 10.3094C76.3722 10.3094 77.3814 9.86449 78.7053 9.22423C79.1828 8.99635 79.8447 8.68164 80.1703 8.54057C80.4959 8.38865 81.1361 8.09565 81.581 7.88946C83.2414 7.11899 84.7389 6.82599 86.7899 6.8911C87.7557 6.9128 88.0378 6.96706 88.6347 7.2275ZM66.6273 9.50638C67.0613 9.65831 67.6256 9.87534 67.8752 9.99471C68.1357 10.1032 68.3744 10.2009 68.407 10.2009C68.4612 10.2009 68.6131 10.266 69.4813 10.6458C69.7743 10.776 70.5665 10.9605 71.1633 11.0473L71.6516 11.1233L71.6299 11.8829C71.6299 12.2953 71.5648 12.9138 71.5106 13.2394C71.4455 13.5649 71.3152 14.2703 71.2176 14.8129C71.1199 15.3446 71.0005 16.0066 70.9571 16.2779C70.8378 16.929 70.4254 18.4483 70.306 18.7195C70.2518 18.8389 70.0781 19.3055 69.9154 19.7505C69.7526 20.1954 69.5573 20.7054 69.4921 20.8899C69.4162 21.0635 69.286 21.3891 69.21 21.5953C69.0798 21.9642 68.9821 22.2247 68.7868 22.7022C68.5697 23.2339 66.7032 26.9995 66.4211 27.4769C66.2475 27.7591 65.8785 28.3885 65.5855 28.8877C65.2817 29.3869 64.6088 30.5154 64.0771 31.4161C63.5454 32.306 62.8834 33.3586 62.6121 33.7493C62.2432 34.2629 61.9285 34.6825 61.668 35.0081C61.5161 35.2034 61.3967 35.3987 61.3967 35.4639C61.3967 35.529 61.3533 35.5941 61.3099 35.6158C61.2665 35.6266 60.9084 36.0824 60.5286 36.625C60.1488 37.1567 59.7364 37.7319 59.617 37.8947C59.4868 38.0466 59.2698 38.3396 59.1178 38.5349L58.8465 38.893L58.7706 37.6451C58.7272 36.9614 58.6512 35.8979 58.597 35.2685C58.5427 34.6391 58.4342 33.0548 58.3691 31.7417C58.304 30.4286 58.1954 29.0287 58.1412 28.6164C58.0001 27.6614 58.0001 22.5719 58.1412 21.6278C58.1954 21.2155 58.2931 20.4233 58.3582 19.859C58.4667 18.8932 58.5644 18.2529 58.8031 17.2003C58.8465 16.9616 58.9551 16.4624 59.031 16.0934C59.107 15.7245 59.2047 15.388 59.2589 15.3446C59.3023 15.3012 59.3349 15.1493 59.3349 15.0191C59.3349 14.878 59.3891 14.7369 59.4434 14.7044C59.5085 14.6718 59.5519 14.5742 59.5519 14.4874C59.5519 14.2052 60.2247 12.8921 60.8216 12.0131C61.7006 10.7109 62.6772 9.83193 63.7298 9.40871C64.4244 9.12657 65.6832 9.16997 66.6273 9.50638ZM40.3985 21.8774C41.8635 22.0076 43.8385 22.6804 45.6508 23.6571C47.6909 24.7531 48.9172 27.0429 49.3621 30.5697C49.4923 31.6332 49.438 34.1074 49.2427 35.1817C49.1885 35.529 49.0908 36.0716 49.0257 36.3754C48.9714 36.6901 48.8738 37.2653 48.8195 37.6559C48.7001 38.3613 48.5482 39.1209 48.3637 39.8263C48.3203 40.0325 48.1684 40.6185 48.0382 41.1285C47.7343 42.3439 47.6149 43.4074 47.5498 45.5777L47.4956 47.3683L46.8228 48.0411C46.4538 48.4209 46.0957 48.7247 46.0197 48.7247C45.9546 48.7247 45.8787 48.8333 45.857 48.9635C45.8135 49.2565 45.3361 49.3975 45.3361 49.1263C45.3361 49.0286 45.3035 48.9418 45.2601 48.9201C45.1624 48.8875 44.9346 48.4317 44.3052 47.0427C43.7626 45.8707 43.2959 44.9483 43.1657 44.8181C43.1006 44.753 42.9704 44.5251 42.4712 43.6027C42.2759 43.2229 41.9503 42.6694 41.7441 42.3656C41.5379 42.0509 40.9954 41.1502 40.5287 40.358C39.3893 38.4047 39.4544 38.5132 39.1831 38.1225C39.042 37.9381 38.9335 37.7536 38.9335 37.7102C38.9335 37.6451 38.0003 36.1258 37.6204 35.5724C37.5011 35.4096 37.4143 35.2468 37.4143 35.2143C37.4143 35.1817 37.1864 34.8236 36.9042 34.4221C36.6112 34.0097 36.3399 33.6082 36.2748 33.5105C36.2206 33.4129 36.0035 33.0982 35.7974 32.816C35.4827 32.3819 34.9726 31.6115 34.1696 30.3852C34.1045 30.2984 33.6812 29.6799 33.2146 29.0287C32.748 28.3668 32.2705 27.694 32.1511 27.5203C32.0318 27.3467 31.8364 27.0754 31.7171 26.9126C31.5977 26.7499 31.3156 26.3267 31.0768 25.9794C30.8489 25.6213 30.6102 25.3174 30.5668 25.3066C30.5125 25.2849 30.4691 25.2089 30.4691 25.1438C30.4691 25.0787 30.3823 24.9376 30.2846 24.8291C30.1761 24.7097 30.1436 24.5904 30.2087 24.5361C30.3389 24.4059 32.9433 23.0711 33.41 22.8975C33.6161 22.8215 33.9525 22.6913 34.1587 22.6045C35.309 22.1596 38.1413 21.6821 39.1506 21.758C39.4218 21.7906 39.9861 21.834 40.3985 21.8774ZM29.8289 25.1981C29.894 25.3283 30.0025 25.4911 30.0568 25.5453C30.1002 25.6104 30.621 26.3375 31.207 27.1622C31.7822 27.9978 32.3573 28.8009 32.4767 28.9745C33.1712 29.9403 33.4968 30.4178 34.0177 31.1991C34.7881 32.3711 34.8315 32.4362 35.0811 32.7618C35.2005 32.9137 35.3524 33.1199 35.4067 33.2175C35.4718 33.3152 36.0361 34.1616 36.6655 35.1166C37.2949 36.0607 37.9352 37.0482 38.0762 37.287C38.2173 37.5365 38.5537 38.09 38.825 38.5132C39.5087 39.6201 39.6931 39.9348 39.6497 39.9348C39.6172 39.9348 39.2157 39.5441 38.749 39.0775C37.9569 38.2745 37.4468 37.8295 35.8842 36.549C34.4734 35.3987 31.0877 33.185 29.7529 32.5339C29.4599 32.3928 29.1235 32.2192 29.0041 32.1432C28.6786 31.9696 26.2912 30.8736 25.6184 30.6131C25.423 30.5263 25.2603 30.4503 25.2603 30.4286C25.2603 30.2116 26.0633 28.79 26.5733 28.0846C27.3221 27.0863 29.3514 24.9593 29.5684 24.9593C29.6444 24.9593 29.7638 25.0678 29.8289 25.1981ZM17.0672 29.0613C19.4003 29.4194 21.2885 29.8426 22.9597 30.4069C23.5674 30.6131 24.0991 30.8193 24.1425 30.8518C24.2076 30.9278 23.9906 31.7308 23.8495 31.9587C23.8061 32.013 23.6868 32.3602 23.5891 32.7184C23.4806 33.0765 23.3612 33.4671 23.3069 33.5865C23.1225 34.0531 22.9814 34.4872 22.7535 35.3228C22.0698 37.9164 21.8962 39.3054 21.8962 42.3547C21.8962 45.4041 22.0047 46.2397 22.7318 48.5077C22.8729 48.9526 23.1659 49.6797 23.3721 50.1138C23.5674 50.5478 23.741 50.9277 23.741 50.9494C23.741 51.0579 25.0975 53.1523 25.4556 53.5972C26.7144 55.1707 28.3747 56.5706 30.0893 57.5147C30.7621 57.8836 31.8473 58.5999 32.1186 58.8386C32.2054 58.9146 32.3465 59.0231 32.4441 59.0882C32.9542 59.4137 33.8332 60.1408 33.8332 60.2385C33.8332 60.3144 33.5836 60.3361 33.1061 60.2927C32.6937 60.2493 31.4675 60.1951 30.3715 60.1625C28.5701 60.1083 28.3422 60.0757 27.9841 59.8587C27.5608 59.6091 27.3004 59.4789 26.6167 59.1967C26.378 59.0882 26.085 58.9688 25.9656 58.9146C25.8463 58.8712 25.4773 58.7518 25.1517 58.6541C22.5799 57.9053 20.7242 57.8945 19.2267 58.5999C18.467 58.958 16.9044 60.5857 16.3401 61.6058C15.9711 62.2895 15.8192 62.4522 15.4503 62.615C15.2007 62.7127 14.7774 62.908 14.5061 63.0274C14.224 63.1576 13.714 63.3638 13.3667 63.4832C13.0086 63.6134 12.6288 63.7545 12.5094 63.8087C12.2815 63.9064 11.5219 64.1126 11.0444 64.1994C10.8925 64.2319 10.6755 64.2971 10.5561 64.3513C10.3174 64.4598 9.92669 64.5249 8.81981 64.6877C8.40744 64.742 7.854 64.8396 7.59356 64.8939C6.94245 65.0458 6.22623 65.0241 5.29298 64.8288C3.94736 64.5575 3.0141 63.8738 2.10255 62.5065C1.35378 61.3888 1.12589 60.5098 1.01737 58.3286C0.919708 56.3535 1.11504 54.7149 1.76615 51.9803C2.07 50.7215 2.12426 50.5261 2.30874 49.9184C2.4064 49.5929 2.51492 49.1914 2.54748 49.0177C2.58003 48.855 2.64514 48.6922 2.6994 48.6596C2.75366 48.6271 2.79707 48.5077 2.79707 48.3883C2.79707 48.2798 2.84047 48.0953 2.89473 47.9868C2.94899 47.8892 3.25284 46.9993 3.55669 46.0118C3.87139 45.0243 4.16439 44.1236 4.21865 44.0042C4.34887 43.7004 4.5225 42.7671 4.66357 41.6168C4.84805 40.1084 4.84805 40.0542 4.42483 38.0357C4.03417 36.2235 5.1302 33.695 7.15948 31.7308C7.59356 31.3076 8.28807 30.7108 8.68959 30.4069C9.51432 29.7775 10.8816 29.083 11.2723 29.083C11.4134 29.083 11.6087 29.0287 11.6955 28.9745C11.9017 28.8334 16.0254 28.8985 17.0672 29.0613ZM25.4447 31.3185C25.6726 31.4161 25.9548 31.5355 26.0742 31.5898C26.6384 31.8068 30.1978 33.5648 30.6102 33.8252C30.8598 33.988 31.1636 34.1616 31.283 34.2267C31.4024 34.2919 31.9341 34.6391 32.455 34.9972C32.9759 35.3553 33.4859 35.6917 33.5944 35.7569C33.8115 35.8871 35.4609 37.1025 35.6346 37.2653C35.7105 37.3304 36.1446 37.6993 36.6112 38.09C37.6205 38.9147 38.3258 39.6201 40.0187 41.4974C40.7024 42.2571 41.3209 42.9407 41.3969 43.0167C41.8092 43.4616 42.9378 45.6103 44.3486 48.6271C44.8477 49.7014 44.826 49.7665 43.9579 49.8642C43.0789 49.9618 42.8727 49.9618 42.0263 49.8642C41.4186 49.7991 41.3426 49.8099 40.8651 50.1355C39.7474 50.8842 38.9335 52.0996 38.9335 53.0112C38.9335 53.7491 39.8776 56.2125 40.1489 56.2125C40.1923 56.2125 40.2357 56.2667 40.2357 56.3318C40.2357 56.7768 43.2417 60.0106 44.9671 61.4213C46.6925 62.8321 51.8037 68.0952 52.7478 69.4299C52.9974 69.7664 53.2145 70.0702 53.2579 70.1028C53.3772 70.2113 53.7354 70.96 53.6811 71.0143C53.5943 71.1011 53.4424 70.9492 52.6068 69.94C52.1618 69.3974 51.6952 68.8439 51.5758 68.7029C51.4565 68.5727 50.7945 67.9541 50.1109 67.3573C49.4272 66.7496 48.7652 66.1636 48.6459 66.055C48.1792 65.621 45.5531 63.9498 44.5222 63.4289C43.0138 62.6693 41.679 62.0616 41.1039 61.8771C40.214 61.595 38.8901 61.2368 38.2281 61.0958C37.9894 61.0415 37.577 60.9438 37.3057 60.8787C37.0345 60.8245 36.5027 60.716 36.1121 60.6509C35.5152 60.5423 35.3199 60.4555 34.8207 60.0214C34.506 59.7501 33.9634 59.3161 33.627 59.0556C33.2906 58.806 32.9433 58.5348 32.8565 58.4588C32.4659 58.1332 31.2396 57.2976 30.7513 57.0372C29.6661 56.4404 28.2662 55.4637 27.5934 54.8451C25.9656 53.3367 24.1642 50.4719 23.448 48.2364C22.7427 46.0769 22.6558 45.4041 22.6558 42.3873C22.6558 39.3705 22.7969 38.2745 23.4589 35.6375C23.6216 34.9972 24.4247 32.5013 24.5983 32.0672C24.6526 31.9479 24.7502 31.6874 24.8262 31.4921C24.9022 31.3076 24.9781 31.1448 24.9998 31.1448C25.0215 31.1448 25.2169 31.2208 25.4447 31.3185ZM60.2681 41.0851C60.5286 41.2045 60.6805 41.3889 60.7999 41.7145C60.9626 42.1377 60.9626 42.2245 60.8216 42.5718C60.572 43.1686 59.3023 44.8181 59.1829 44.6987C59.1395 44.6553 59.0853 43.8197 59.0419 42.8322C58.9768 41.1285 58.9876 41.0417 59.1829 40.9874C59.5845 40.8897 59.8992 40.9115 60.2681 41.0851ZM58.3582 43.505V45.7622L57.8265 46.5652C56.2747 48.9092 54.7988 52.3709 54.1694 55.1273C53.909 56.2667 53.8222 56.6357 53.5834 57.8945C53.4532 58.5456 53.3013 59.2401 53.247 59.4246C53.1928 59.6091 53.1494 59.9563 53.1494 60.1951C53.1494 60.4338 53.106 60.7702 53.0408 60.9438C52.9866 61.1175 52.8889 61.7686 52.8347 62.398C52.7044 63.7653 52.6176 64.2428 52.4874 64.2428C51.9665 64.2428 52.0425 59.3486 52.6176 55.9954C52.6719 55.6699 52.7695 54.7366 52.8238 53.9227C52.8672 53.1089 52.9757 52.2299 53.0408 51.9694C53.247 51.1881 53.3447 50.7757 53.54 49.9184C53.9632 47.9868 54.8748 45.8273 55.9274 44.2647C56.253 43.7872 56.5785 43.3314 56.6328 43.2554C56.9149 42.9407 58.0327 41.3889 58.0327 41.313C58.0327 41.2696 58.1086 41.237 58.1954 41.237C58.3365 41.237 58.3582 41.5626 58.3582 43.505ZM56.7738 41.8013C56.7304 41.8773 56.3723 42.409 55.9708 42.9733C55.1786 44.091 54.5818 45.046 54.3756 45.4692C54.0935 46.0661 53.8005 46.7714 53.5834 47.3791C53.4532 47.7372 53.3121 48.117 53.2579 48.2364C53.1385 48.5403 52.9649 49.1805 52.7695 50.0812C52.6719 50.4936 52.5525 51.0145 52.4982 51.2206C52.2812 52.0996 52.1618 52.8701 52.0642 54.2049C51.9991 54.9754 51.9014 55.9086 51.8471 56.2667C51.7169 57.0372 51.6952 57.2542 51.5758 59.4897C51.5324 60.4338 51.4456 61.2043 51.3914 61.2043C51.272 61.2043 51.3697 52.6965 51.5216 49.4844C51.6301 47.2272 51.7603 46.7172 52.5417 45.4692C53.6377 43.7112 54.7012 42.6152 55.7755 42.116C56.3506 41.8447 56.6545 41.7253 56.8173 41.6819C56.839 41.6711 56.8173 41.7362 56.7738 41.8013ZM88.0053 46.5544C88.3308 46.804 88.6673 47.607 88.906 48.7247C89.1447 49.8425 89.2858 50.3742 89.4052 50.5912C89.5354 50.8517 89.5245 52.4903 89.3943 52.5771C89.3401 52.6097 89.2858 52.7399 89.2858 52.8593C89.2858 53.1523 88.613 54.2049 88.0487 54.78C86.9961 55.8978 86.3016 56.1582 83.5344 56.4946C81.9174 56.6899 81.1144 56.8419 79.899 57.1891C79.2805 57.3628 79.2262 57.3845 77.2078 58.3828C74.8312 59.544 72.7802 60.9873 70.7401 62.8972C70.2843 63.3204 69.5247 63.9715 69.0472 64.3622C68.5697 64.742 68.0814 65.1435 67.962 65.252C66.942 66.1853 65.6398 66.9123 64.0554 67.4441C63.7624 67.5526 63.4151 67.672 63.2958 67.7262C63.1764 67.7696 62.2974 68.0626 61.3425 68.3665C58.6946 69.2129 57.6963 69.7772 56.0576 71.3833C55.6561 71.7739 55.2872 72.0669 55.2438 72.0235C55.2112 71.9801 55.2329 71.8824 55.298 71.8173C55.374 71.7414 55.4282 71.6112 55.4282 71.5135C55.4282 71.3182 56.546 69.6904 57.5443 68.4207C58.1629 67.6286 58.9225 66.1853 59.0636 65.545C59.107 65.3388 59.1829 65.1001 59.2264 65.0024C59.4 64.6769 59.5628 63.9498 59.6713 62.9948C59.9317 60.8679 59.9751 60.5749 60.0836 59.7936C60.1488 59.3486 60.279 58.4696 60.3658 57.8402C60.5177 56.6791 60.6479 56.028 60.7999 55.5831C60.865 55.3877 62.5253 54.1506 62.7206 54.1506C62.7532 54.1506 63.3066 53.8576 63.9469 53.4995C64.5871 53.1414 65.1297 52.8484 65.1406 52.8484C65.1731 52.8484 67.2784 51.6656 67.9403 51.2641C68.5372 50.9059 68.6783 50.83 69.9696 50.0378C70.7184 49.5712 70.9571 49.4844 71.2176 49.5386C72.6175 49.8099 77.3597 49.9293 78.434 49.7123C78.7596 49.6471 79.237 49.5603 79.4975 49.5169C79.7471 49.4844 79.9858 49.4084 80.0184 49.365C80.0509 49.3107 80.192 49.2673 80.3331 49.2673C80.4742 49.2673 80.6152 49.2239 80.6478 49.1697C80.6803 49.1154 80.8974 49.0394 81.1144 48.996C81.3423 48.9526 81.581 48.8875 81.6353 48.8441C81.7004 48.8007 82.1562 48.6271 82.6554 48.4534C83.4909 48.1713 84.0986 47.8783 86.0628 46.8474C87.148 46.2722 87.5712 46.2071 88.0053 46.5544ZM50.2953 47.1187C50.4256 47.2597 50.5883 47.5636 50.6534 47.8132C50.7837 48.2581 50.7837 48.486 50.5883 54.4219C50.5449 55.735 50.5666 57.0698 50.6534 58.079C50.7837 59.6199 50.7186 60.3253 50.5232 59.6308C50.2953 58.8603 50.0892 58.079 49.9915 57.6232C49.9264 57.3519 49.8396 56.9395 49.7745 56.7008C49.6768 56.3101 49.5357 55.6156 49.2319 53.9879C49.0582 53.1089 48.928 52.3167 48.7544 51.1121C48.4722 49.2348 48.4071 48.8007 48.3203 48.3775C48.1901 47.7155 48.3095 47.4768 48.9389 47.1621C49.6334 46.8148 50.0023 46.804 50.2953 47.1187ZM58.2388 51.3617C58.1737 51.9152 58.0978 52.5771 58.0761 52.8484C58.0435 53.1197 57.9784 53.4344 57.9241 53.5538C57.8699 53.6732 57.8048 53.9879 57.7722 54.2592C57.7397 54.5304 57.6311 55.1381 57.5335 55.6156C57.4467 56.0931 57.3381 56.6574 57.3056 56.8636C57.2622 57.1674 57.0017 57.493 56.0902 58.4371C55.4499 59.0882 54.712 59.9346 54.4516 60.3036C54.202 60.6834 53.9632 60.9873 53.9307 60.9873C53.909 60.9873 53.909 60.6834 53.9415 60.3036C54.0175 59.5331 54.2237 58.3611 54.6578 56.3969C54.7229 56.1474 54.8097 55.6916 54.8748 55.3986C55.0267 54.6498 55.6019 52.7508 55.8515 52.1431C55.9057 52.0237 56.0359 51.709 56.1444 51.4377C56.3832 50.8517 57.7505 48.0953 58.0761 47.5419L58.304 47.1512L58.3365 48.7573C58.3474 49.6363 58.3148 50.8083 58.2388 51.3617ZM47.756 48.855C47.7886 49.1697 47.8862 49.9184 47.9839 50.5153C48.0924 51.1121 48.2118 51.8935 48.2661 52.2516C48.3203 52.6097 48.418 53.1957 48.4831 53.5538C48.7761 55.1381 48.7218 55.952 48.3746 55.2684C48.2878 55.0947 48.1033 54.7692 47.9514 54.5413C47.1158 53.1631 46.0631 51.047 45.8244 50.2548C45.7593 50.0378 45.8678 49.8859 46.6274 49.148C47.1049 48.6705 47.5498 48.2907 47.6041 48.2907C47.6584 48.2907 47.7235 48.5511 47.756 48.855ZM69.1015 49.6363C69.0147 49.7231 68.7868 49.8859 68.6023 49.9944C68.4178 50.1029 67.9295 50.3959 67.5171 50.6347C66.5947 51.1989 66.1498 51.4377 64.9778 52.0671C64.4678 52.3384 63.719 52.7399 63.3175 52.9678C62.9051 53.2065 62.547 53.391 62.5253 53.391C62.5036 53.391 62.2106 53.5646 61.8742 53.7817C61.5486 53.9987 61.2448 54.1398 61.2122 54.1072C61.1797 54.0747 61.375 53.5863 61.6572 53.022C62.6121 51.0904 63.7841 50.244 66.3343 49.6146C66.573 49.5603 67.3326 49.5061 68.0163 49.4952C69.0906 49.4844 69.2317 49.5061 69.1015 49.6363ZM45.6833 51.4377C45.9655 52.002 46.1934 52.5554 46.1934 52.6531C46.2042 52.7616 46.2368 52.8484 46.291 52.8484C46.367 52.8484 46.7468 53.6297 46.7468 53.7925C46.7468 53.8359 47.4305 55.2575 48.2769 56.9612C49.1125 58.665 49.8504 60.1625 49.8938 60.2819C50.2302 61.1066 50.7728 62.615 50.8271 62.9189C50.8705 63.1142 50.9464 63.2987 50.9899 63.3312C51.0441 63.3638 51.0875 63.4832 51.0875 63.6025C51.0875 63.711 51.1309 63.8955 51.1852 64.0041C51.2394 64.1017 51.3697 64.4815 51.4782 64.8396C51.5758 65.1977 51.7712 65.7295 51.9014 66.0333C52.0316 66.3263 52.2053 66.7496 52.2812 66.9557C52.368 67.1619 52.52 67.4983 52.6393 67.7045C52.7912 67.9758 52.8021 68.0952 52.7153 68.1928C52.6176 68.2797 52.4982 68.2037 52.2487 67.889C51.1309 66.4891 47.0072 62.2461 45.7159 61.1609C43.806 59.5548 41.9395 57.6558 41.1907 56.538C39.8234 54.5196 39.4218 53.1957 39.8451 52.1756C40.0295 51.7415 41.2341 50.5695 41.5162 50.5587H42.8944C43.5564 50.5695 44.2617 50.5261 44.4679 50.4719C44.6741 50.4176 44.9237 50.3851 45.0105 50.3851C45.0973 50.3959 45.4012 50.8734 45.6833 51.4377ZM60.0185 56.2342C59.9317 56.3861 59.8558 56.831 59.5953 58.9254C59.5085 59.6742 59.3891 60.5749 59.3349 60.933C59.2806 61.2911 59.1938 62.0182 59.1287 62.5608C59.0744 63.0925 58.9442 63.8304 58.8465 64.1885C58.738 64.5466 58.6404 64.9482 58.6078 65.0892C58.5752 65.2194 58.5101 65.3605 58.4559 65.3931C58.4016 65.4256 58.3582 65.5559 58.3582 65.6969C58.3582 65.8272 58.2823 66.0333 58.1954 66.1527C58.1086 66.2612 58.0327 66.4457 58.0327 66.5434C58.0327 66.6519 57.9893 66.7387 57.9241 66.7387C57.8699 66.7387 57.8156 66.8038 57.8156 66.8689C57.8048 67.01 57.718 67.1402 56.1336 69.3648C55.3089 70.5151 55.0701 70.9166 54.9725 71.2856C54.9182 71.4918 54.4841 70.5911 54.3105 69.8857C53.9632 68.5401 53.909 68.1494 53.8764 66.9015L53.8547 65.5993L54.2671 65.035C54.4841 64.7203 54.6686 64.4381 54.6686 64.4056C54.6686 64.373 54.8314 64.0909 55.0267 63.7762C55.6453 62.8104 57.056 59.9563 57.056 59.6742C57.056 59.6199 57.0994 59.4897 57.1537 59.3812C57.3164 59.0556 57.4684 58.665 57.5335 58.3828C57.5769 58.2309 57.6637 58.0356 57.7397 57.9488C57.9133 57.7317 59.324 56.5163 59.6604 56.2884C59.9751 56.0714 60.1379 56.0497 60.0185 56.2342ZM24.1968 59.2076C25.282 59.468 26.7795 60.0757 26.7795 60.2493C26.7795 60.2927 26.454 60.3361 26.0524 60.3361C25.6509 60.3361 25.0541 60.3796 24.7285 60.4447C24.3921 60.4989 23.7844 60.6074 23.3612 60.6726C22.5799 60.7919 22.1024 60.8896 21.2451 61.0958C20.9738 61.1609 20.3878 61.2803 19.9429 61.3671C19.498 61.4539 18.9337 61.5733 18.6949 61.6275C17.6532 61.888 17.1106 61.9856 17.0563 61.9314C16.9586 61.8337 17.8811 60.6834 18.5756 60.0323C19.1833 59.4572 19.6716 59.1859 20.377 59.0231C20.9413 58.8929 23.4046 59.0122 24.1968 59.2076ZM56.6328 59.2184C56.4809 59.5114 56.1879 60.1951 56.1879 60.271C56.1879 60.4013 55.3957 62.0724 55.0267 62.7235C54.9073 62.9297 54.6469 63.3964 54.4516 63.7545C53.7245 65.0675 53.6919 65.0784 53.6919 63.9715C53.6919 63.2987 53.7462 63.0491 53.9741 62.5825C54.4299 61.6709 55.3414 60.3361 55.96 59.6525C56.5243 59.0448 56.8281 58.8495 56.6328 59.2184ZM28.4073 60.9655C28.4073 61.0198 28.6243 61.1609 28.8848 61.2911C29.1452 61.4213 29.4165 61.6058 29.4925 61.6926C29.5684 61.7794 29.6769 61.8554 29.7312 61.8554C29.7855 61.8554 30.0785 62.0182 30.3932 62.2135C30.7079 62.4088 31.0334 62.6042 31.1202 62.6476C31.207 62.691 31.3807 62.7887 31.4892 62.8538C32.3682 63.4181 33.703 64.1343 34.7556 64.5792C35.4175 64.8722 37.4143 65.4365 38.0654 65.5342C38.7382 65.621 38.8901 65.6969 39.5521 66.2287C42.0914 68.258 44.023 69.2021 46.6383 69.6795C48.6567 70.0485 50.0783 70.3632 50.4907 70.5368C50.61 70.5911 50.9573 70.7105 51.2503 70.819C52.227 71.1662 54.0175 72.3274 54.0175 72.6095C54.0175 72.6638 53.4966 72.7072 52.8455 72.7072C51.7278 72.7072 51.3263 72.7723 49.6225 73.2498C49.1125 73.3908 48.0165 73.6947 47.7452 73.7598C47.6149 73.7924 47.4739 73.8575 47.4413 73.9117C47.4088 73.966 47.2677 74.0094 47.1266 74.0094C46.9855 74.0094 46.8336 74.0528 46.8011 74.1179C46.7685 74.1722 46.6383 74.2264 46.5298 74.2264C46.4212 74.2264 45.7376 74.4218 45.0105 74.6605C44.2834 74.8992 43.5998 75.0946 43.4913 75.0946C43.3828 75.0946 43.2525 75.138 43.22 75.2031C43.1874 75.2574 43.0355 75.3116 42.8836 75.3116C42.7425 75.3116 42.5363 75.355 42.4278 75.4093C42.3301 75.4635 41.9503 75.5721 41.5922 75.6372C41.2341 75.7131 40.7458 75.8108 40.507 75.8759C39.6497 76.0712 39.0854 76.1798 38.2824 76.2883C37.8375 76.3534 37.2623 76.4511 37.0019 76.5053C36.3942 76.6464 31.1419 76.6464 30.3715 76.5053C30.0351 76.4511 29.4274 76.3534 29.0041 76.2883C28.2879 76.1906 27.767 76.0821 26.888 75.8542C26.6819 75.7999 26.2586 75.6914 25.9439 75.6155C25.6401 75.5395 25.3471 75.4418 25.3037 75.3876C25.2603 75.3442 25.13 75.3116 25.0215 75.3116C24.913 75.3116 24.7394 75.2682 24.6309 75.2139C24.5332 75.1597 24.2293 75.0295 23.9581 74.9318C23.4589 74.7365 21.4621 73.7815 21.0823 73.5428C19.3243 72.4684 18.2066 71.5026 17.2191 70.1679C16.3835 69.0718 16.058 68.3339 15.9169 67.2596C15.7107 65.7403 16.1773 63.2553 16.7308 62.908C16.861 62.8321 17.3493 62.6801 17.8268 62.5716C18.3043 62.4631 18.8143 62.3329 18.9662 62.2895C19.1182 62.2352 19.6824 62.1158 20.2142 62.0182C20.7568 61.9205 21.3645 61.8011 21.5707 61.7469C23.0791 61.3888 24.1751 61.2151 25.6726 61.1066C26.2803 61.0524 26.8121 60.9873 26.8555 60.9438C26.9531 60.8462 28.4073 60.8679 28.4073 60.9655ZM33.7247 61.0741C34.289 61.1175 34.8641 61.2151 34.9943 61.2911C35.2114 61.4105 36.0578 62.3329 37.436 63.9498C37.729 64.2862 37.9026 64.5683 37.8266 64.59C37.7181 64.6335 37.1213 64.4924 36.6546 64.3296C36.5678 64.297 36.2206 64.1885 35.895 64.0909C35.5695 63.9823 35.1028 63.8087 34.8641 63.7002C34.6254 63.5808 34.2347 63.4181 33.996 63.3204C33.7572 63.2227 33.0627 62.8429 32.4441 62.4739C31.0768 61.6492 31.066 61.6492 30.5017 61.3237C30.2412 61.1717 30.0351 61.009 30.0351 60.9547C30.0351 60.857 31.4783 60.9004 33.7247 61.0741ZM37.2515 61.6492C37.8266 61.7686 38.4126 61.8988 39.2591 62.1267C39.6497 62.2244 40.0838 62.3329 40.2357 62.3654C40.3877 62.398 40.5613 62.4631 40.6155 62.5065C40.6807 62.5499 40.8651 62.615 41.0388 62.6584C41.2232 62.7018 41.8309 62.9623 42.3952 63.2336C42.9704 63.5049 43.7083 63.8521 44.0339 64.0041C45.5423 64.7203 49.3512 67.4007 49.3512 67.7479C49.3512 67.8347 49.3187 67.8347 49.2644 67.7696C49.145 67.596 47.0072 66.4783 46.3127 66.2178C45.195 65.8055 44.3051 65.5559 43.3827 65.3931C42.8185 65.2954 42.1131 65.1652 41.8092 65.1109C41.5162 65.0567 40.8868 64.9807 40.4202 64.9482C39.9536 64.9156 39.4544 64.8396 39.3242 64.7854C39.1831 64.7311 38.7165 64.2862 38.2933 63.787C37.87 63.2878 37.2515 62.5933 36.9259 62.2244C36.3725 61.6058 36.264 61.3237 36.6438 61.4864C36.7415 61.5298 37.0128 61.595 37.2515 61.6492ZM41.8635 65.9682C43.0463 66.131 44.0556 66.3155 44.3052 66.4131C44.4245 66.4566 44.9346 66.6302 45.4446 66.793C46.4972 67.1294 47.4088 67.5526 48.6459 68.3122C49.4815 68.8222 50.6534 69.6361 50.6534 69.7121C50.6534 69.7555 49.6768 69.5819 49.4598 69.4951C49.3729 69.4625 49.0582 69.3865 48.7544 69.3323C48.4614 69.2672 47.9948 69.1804 47.7235 69.1261C47.4522 69.0718 46.9638 68.985 46.6383 68.9199C45.7593 68.7571 43.8602 68.1603 43.2959 67.8781C42.775 67.596 40.3442 65.9248 40.3442 65.838C40.3442 65.7837 40.507 65.762 40.7024 65.7946C40.8868 65.8271 41.4186 65.9031 41.8635 65.9682Z" fill="#8A0CF7"/>
<path fill-rule="evenodd" clip-rule="evenodd" d="M57.2302 74.702C57.1649 74.8415 57.2488 78.0564 57.3234 78.3021C57.3731 78.435 57.3545 78.446 57.2675 78.3353C57.2022 78.2423 57.0904 78.0497 57.0251 77.9036C56.8946 77.618 56.7548 77.3788 56.6243 77.1929C56.5777 77.1264 56.5404 77.0401 56.5404 77.0002C56.5404 76.9604 56.4845 76.8342 56.4099 76.7212C56.3353 76.6017 56.1862 76.3493 56.065 76.1566C55.8319 75.7714 55.8506 75.7847 55.5989 75.8777C55.4124 75.9507 55.3565 76.2364 55.515 76.3094C55.5709 76.3293 55.6082 76.4091 55.6082 76.4821C55.6082 76.5485 55.6548 76.6083 55.7014 76.6083C55.7574 76.6083 55.7946 76.6548 55.7946 76.708C55.7946 76.7611 55.9345 77.0268 56.1116 77.2925C56.2887 77.5515 56.4565 77.8438 56.4938 77.9368C56.5217 78.0298 56.587 78.1626 56.6336 78.2357C56.7828 78.4748 57.1929 79.3981 57.1929 79.4978C57.1929 79.5575 57.2302 79.6505 57.2768 79.7169C57.5005 80.0159 57.5844 80.6004 57.5285 81.331C57.3607 83.2839 57.1556 84.9644 57.0158 85.6419C56.9599 85.8811 56.8946 86.16 56.876 86.273C56.848 86.3792 56.7828 86.6184 56.7268 86.8043C56.6336 87.1365 56.4099 88.0332 56.2607 88.6642C56.2141 88.8435 56.1582 89.0827 56.1209 89.1956C56.0929 89.3019 55.9997 89.634 55.9251 89.9262C55.8412 90.2185 55.7387 90.5174 55.7014 90.5905C55.5989 90.7964 55.4497 91.1484 55.2819 91.62C55.198 91.8592 55.0955 92.1116 55.0489 92.1846C54.8811 92.4968 54.6481 93.4068 54.4803 94.443C54.4336 94.7353 54.3777 95.094 54.3498 95.2401C54.3218 95.3863 54.2379 95.8512 54.1633 96.2697C54.0887 96.6882 54.0048 97.1664 53.9676 97.3325C53.3803 100.222 53.5015 103.749 54.2659 105.928C54.3498 106.154 54.443 106.439 54.4896 106.565C54.5362 106.692 54.6387 106.964 54.7226 107.163C54.8065 107.362 54.8997 107.588 54.9277 107.661C54.9463 107.734 55.0023 107.854 55.0396 107.927C55.2913 108.379 55.4684 108.864 55.6082 109.455C55.7014 109.88 55.9718 110.903 56.0743 111.248C56.2887 111.939 56.7175 113.135 56.8107 113.307C56.9412 113.527 57.1929 114.144 57.1929 114.244C57.1929 114.297 57.2302 114.39 57.2768 114.456C57.3234 114.516 57.4726 114.835 57.6124 115.167C57.7429 115.493 57.892 115.825 57.9293 115.898C57.9759 115.971 58.1251 116.283 58.2556 116.595C58.3954 116.907 58.5446 117.22 58.5819 117.293C58.6285 117.366 58.992 118.143 59.3835 119.02C59.7751 119.897 60.1386 120.674 60.1759 120.747C60.3064 120.979 60.4276 121.252 60.9216 122.374C61.192 122.979 61.4716 123.603 61.5462 123.769C61.6208 123.935 61.7513 124.234 61.8259 124.433C61.8911 124.633 61.9937 124.885 62.0403 124.998C62.236 125.496 62.4318 126.021 62.5157 126.293C62.5716 126.459 62.6462 126.712 62.7021 126.858C62.786 127.103 62.9725 127.794 63.1682 128.585C63.2148 128.764 63.2894 129.129 63.336 129.382C63.3826 129.641 63.4479 129.927 63.4758 130.013C63.5318 130.179 63.6623 131.109 63.8207 132.471C63.9606 133.679 64.0258 135.519 63.9233 135.712C63.8767 135.812 63.7928 136.011 63.7368 136.157C63.5411 136.675 63.1216 137.618 63.0563 137.685C63.0284 137.718 62.9631 137.857 62.9258 137.984C62.8886 138.11 62.8233 138.256 62.786 138.316C62.5809 138.608 62.4691 138.841 62.1428 139.677C62.0869 139.824 61.975 140.109 61.9004 140.308C61.8165 140.508 61.7047 140.793 61.6488 140.94C61.5928 141.086 61.5182 141.265 61.4716 141.338C61.4343 141.411 61.3132 141.657 61.2106 141.883C61.1081 142.109 60.9683 142.394 60.8937 142.514C60.8191 142.633 60.6886 142.866 60.5954 143.032C60.5022 143.198 60.3717 143.43 60.2971 143.543C60.2318 143.663 60.1106 143.882 60.0361 144.028C59.8683 144.36 59.7005 144.646 59.2344 145.33C59.0386 145.622 58.8708 145.888 58.8708 145.908C58.8708 145.935 58.7217 146.18 58.5446 146.459C58.3675 146.732 58.2183 146.971 58.2183 146.984C58.2183 147.004 58.0971 147.21 57.9387 147.449C57.7895 147.688 57.659 147.901 57.659 147.921C57.659 147.941 57.6031 148.053 57.5285 148.166C57.3141 148.518 57.2116 148.758 57.0624 149.209C56.848 149.887 56.8014 150.119 56.7548 150.916C56.7175 151.654 56.7175 151.66 56.9505 151.767C57.5099 152.026 58.2649 151.62 59.2717 150.511C60.4928 149.176 61.7979 147.05 62.4784 145.29C62.553 145.091 62.6555 144.819 62.7021 144.692C62.758 144.566 62.8606 144.247 62.9352 143.995C63.0191 143.736 63.1216 143.41 63.1682 143.264C63.336 142.793 63.4292 142.481 63.5784 141.903C63.6623 141.59 63.7741 141.205 63.8207 141.039C64.0258 140.362 64.3614 138.907 64.4733 138.216C64.5199 137.924 64.5945 137.04 64.6317 136.257C64.669 135.473 64.7343 134.789 64.7809 134.742C64.8182 134.696 64.8928 134.483 64.9394 134.277C64.9953 134.071 65.0792 133.686 65.1444 133.434C65.2843 132.836 65.275 130.524 65.1351 129.581C64.9673 128.472 64.8555 127.847 64.7063 127.157C64.5665 126.512 64.5012 126.293 64.2309 125.463C64.1563 125.204 64.0445 124.865 63.9885 124.699C63.8301 124.188 63.4199 123.045 63.1589 122.407C63.0843 122.215 63.0004 122.009 62.7767 121.411C62.7208 121.265 62.6369 121.086 62.5996 121.012C62.5623 120.939 62.4131 120.607 62.2733 120.282C62.1242 119.95 61.9843 119.651 61.9564 119.618C61.9004 119.545 61.5649 118.88 61.2852 118.289C61.0894 117.877 61.0149 117.744 60.8471 117.459C60.7911 117.366 60.7166 117.22 60.6886 117.127C60.6513 117.034 60.5488 116.808 60.4556 116.629C60.3623 116.443 60.1759 116.071 60.0361 115.798C59.8962 115.526 59.7564 115.24 59.7098 115.167C59.6632 115.094 59.5607 114.882 59.4768 114.702C59.309 114.35 59.2344 114.211 59.0852 113.938C59.0293 113.845 58.9081 113.639 58.8242 113.473C58.731 113.307 58.5819 113.048 58.4886 112.896C58.3861 112.736 58.3115 112.59 58.3115 112.57C58.3115 112.53 58.237 112.411 57.8548 111.8C57.7522 111.627 57.659 111.467 57.659 111.441C57.659 111.421 57.5565 111.242 57.426 111.042C57.2955 110.843 57.1929 110.664 57.1929 110.644C57.1929 110.624 57.1277 110.504 57.0531 110.378C56.9785 110.252 56.8573 110.053 56.7828 109.933C56.7082 109.82 56.559 109.541 56.4472 109.322C56.3353 109.103 56.2141 108.864 56.1675 108.791C55.9811 108.485 55.8692 107.628 55.8226 106.034C55.776 104.42 55.8412 103.404 56.0836 101.916C56.2234 101.072 56.5497 99.4779 56.7361 98.7406C56.9505 97.8572 56.9878 97.7111 57.3887 95.7715C57.4353 95.5523 57.4912 95.2401 57.5192 95.0741C57.5938 94.6755 57.8268 93.5065 57.8921 93.2142C57.9573 92.9352 58.0692 92.4238 58.2556 91.4872C58.3302 91.1019 58.442 90.5772 58.498 90.3248C58.8708 88.7373 58.9547 87.8738 58.9547 86.0405C58.9547 83.9614 58.8336 82.8588 58.5073 81.6897C58.181 80.5406 58.1065 80.1952 58.0226 79.3317C57.8548 77.6379 57.7709 76.5286 57.7615 75.7448C57.7522 74.9942 57.6497 74.6887 57.4073 74.6289C57.3421 74.6156 57.2582 74.6488 57.2302 74.702ZM58.3209 83.4898C58.498 85.5024 58.5259 86.6449 58.4234 87.3025C58.3675 87.6479 58.2742 88.2789 58.2183 88.6974C58.1158 89.4414 58.0598 89.707 57.8454 90.6569C57.7895 90.9093 57.6776 91.4341 57.6031 91.8193C57.5192 92.2046 57.4166 92.6828 57.37 92.8821C57.3327 93.0814 57.2675 93.367 57.2395 93.5131C57.2116 93.6592 57.137 93.9847 57.0904 94.2438C57.0344 94.4962 56.9505 94.9147 56.8946 95.1737C56.848 95.4261 56.7734 95.8047 56.7268 96.004C56.6895 96.2033 56.5777 96.6948 56.4938 97.1C56.3353 97.8639 56.2328 98.3155 56.0836 98.9266C55.9531 99.5045 55.6921 100.713 55.5989 101.185C55.4311 102.082 55.1514 104.699 55.1421 105.416C55.1421 105.875 55.1048 106.167 55.0489 106.167C55.0023 106.167 54.9557 106.094 54.9557 106.007C54.9557 105.928 54.9184 105.768 54.8625 105.662C54.8158 105.556 54.7226 105.277 54.6667 105.038C54.2845 103.37 54.1447 101.404 54.2938 99.8101C54.4243 98.4285 54.4336 98.3753 54.965 95.373C55.0209 95.0807 55.0955 94.629 55.1421 94.3766C55.2446 93.719 55.4031 93.0216 55.5057 92.7492C55.5523 92.623 55.6362 92.3972 55.6921 92.2511C55.9438 91.5536 56.0929 91.175 56.1768 91.0754C56.2234 91.0089 56.2607 90.896 56.2607 90.823C56.2607 90.7499 56.298 90.637 56.3446 90.5706C56.3912 90.5108 56.5031 90.1853 56.587 89.8598C56.6709 89.5277 56.7734 89.1092 56.82 88.9299C56.8666 88.7439 56.9319 88.4782 56.9692 88.3321C57.0251 88.0398 57.2395 87.1962 57.3794 86.6715C57.5844 85.9076 57.9107 83.8352 58.0039 82.7259C58.0785 81.8093 58.1903 82.1016 58.3209 83.4898ZM56.9972 111.527C57.137 111.8 57.2582 112.012 57.5565 112.49C57.659 112.663 57.7522 112.829 57.7522 112.849C57.7522 112.869 57.8175 112.988 57.8921 113.115C58.1158 113.473 58.2742 113.752 58.4048 114.005C58.4607 114.131 58.5539 114.297 58.5912 114.37C58.6378 114.443 58.7776 114.729 58.9175 115.001C59.0573 115.273 59.1971 115.559 59.2437 115.632C59.281 115.705 59.3835 115.911 59.4768 116.097C59.5607 116.276 59.6632 116.489 59.7098 116.562C59.7564 116.635 59.859 116.841 59.9429 117.027C60.0268 117.206 60.1386 117.412 60.1852 117.472C60.2318 117.539 60.2691 117.645 60.2691 117.711C60.2691 117.778 60.3064 117.857 60.3437 117.891C60.381 117.93 60.4928 118.123 60.5861 118.322C60.6793 118.522 60.7911 118.754 60.8378 118.834C61.0335 119.186 61.0988 119.305 61.2479 119.618C61.3318 119.797 61.4437 120.009 61.481 120.083C61.5276 120.156 61.6394 120.381 61.7233 120.581C61.7979 120.78 61.9004 121.006 61.9471 121.079C61.9843 121.152 62.0682 121.345 62.1335 121.511C62.1987 121.677 62.3013 121.942 62.3665 122.108C62.4318 122.275 62.5157 122.48 62.553 122.573C62.5809 122.666 62.6555 122.846 62.7021 122.972C62.758 123.098 62.8513 123.37 62.9258 123.57C63.0004 123.769 63.103 124.055 63.1589 124.201C63.2894 124.533 63.3826 124.805 63.5784 125.43C63.6623 125.702 63.7648 126.047 63.8207 126.193C63.9606 126.625 64.1936 127.615 64.2962 128.219C64.5106 129.521 64.5478 129.84 64.6504 130.976C64.7529 132.006 64.7436 132.225 64.6224 132.57L64.4826 132.969L64.4733 132.411C64.4639 132.105 64.4267 131.673 64.3707 131.448C64.3241 131.228 64.2216 130.624 64.1377 130.112C64.0538 129.601 63.9512 129.03 63.9046 128.85C63.858 128.664 63.7928 128.399 63.7648 128.253C63.597 127.502 63.3453 126.678 63.0191 125.795C62.8886 125.43 62.7487 125.058 62.7301 124.965C62.7021 124.872 62.6462 124.739 62.5996 124.666C62.5623 124.593 62.4504 124.34 62.3665 124.101C62.2826 123.862 62.1708 123.61 62.1335 123.537C62.0962 123.463 61.9843 123.224 61.9004 123.005C61.742 122.6 61.6115 122.314 61.481 122.075C61.4437 122.002 60.7911 120.594 60.0361 118.953C59.281 117.306 58.6285 115.904 58.5912 115.831C58.5446 115.758 58.4327 115.533 58.3488 115.333C58.2649 115.134 58.1344 114.835 58.0598 114.669C57.9759 114.503 57.8827 114.277 57.8454 114.171C57.7988 114.058 57.6963 113.806 57.6124 113.606C57.2116 112.643 56.9133 111.813 56.9133 111.64C56.9133 111.554 56.876 111.467 56.82 111.447C56.7082 111.401 56.6989 111.281 56.8014 111.281C56.8387 111.281 56.9319 111.394 56.9972 111.527ZM63.858 137.831C63.8301 138.156 63.7648 138.522 63.7182 138.648C63.6809 138.774 63.5877 139.133 63.5318 139.445C63.4106 140.03 63.3267 140.395 63.1682 140.906C63.1216 141.072 63.0097 141.458 62.9258 141.77C62.8419 142.082 62.7394 142.454 62.6928 142.6C62.6462 142.746 62.5436 143.092 62.4598 143.364C62.264 143.995 62.1708 144.261 62.0403 144.593C61.9843 144.739 61.8911 144.978 61.8445 145.124C61.6954 145.556 61.0335 146.911 60.7352 147.383C60.6513 147.529 60.5488 147.715 60.5115 147.794C60.4742 147.874 60.3064 148.146 60.1293 148.406C59.9522 148.671 59.803 148.89 59.803 148.91C59.803 148.99 58.6098 150.418 58.3302 150.671C57.948 151.009 57.4726 151.335 57.3607 151.335C57.2582 151.335 57.3607 150.186 57.4819 149.913C57.5285 149.807 57.5658 149.648 57.5658 149.555C57.5658 149.402 57.7709 148.817 57.9387 148.512C57.9759 148.439 58.0692 148.273 58.1344 148.146C58.1903 148.02 58.3209 147.794 58.4141 147.648C58.498 147.502 58.6844 147.19 58.8242 146.951C59.1319 146.426 59.3556 146.074 59.7657 145.443C59.9429 145.184 60.0827 144.952 60.0827 144.932C60.0827 144.912 60.1573 144.766 60.2598 144.606C60.353 144.453 60.5022 144.194 60.5954 144.028C60.6886 143.862 60.8098 143.636 60.875 143.53C60.9403 143.417 61.0894 143.165 61.2013 142.965C61.3132 142.766 61.4437 142.54 61.4903 142.467C61.5276 142.394 61.7047 142.022 61.8818 141.637C62.1708 140.999 62.3386 140.587 62.6089 139.877C62.6648 139.731 62.7487 139.551 62.786 139.478C62.8326 139.405 62.9352 139.166 63.0284 138.947C63.1123 138.728 63.2148 138.515 63.2521 138.482C63.2801 138.442 63.3919 138.236 63.4852 138.017C63.5877 137.798 63.6996 137.592 63.7368 137.552C63.7741 137.519 63.8114 137.439 63.8114 137.373C63.8114 137.306 63.8301 137.253 63.8673 137.253C63.8953 137.253 63.886 137.512 63.858 137.831Z" fill="#8A0CF7"/>
</svg>
