<svg width="25" height="22" viewBox="0 0 25 22" fill="none" xmlns="http://www.w3.org/2000/svg">
<path d="M23.9463 12.9525L22.9365 15.8425C22.8703 16.0314 22.6915 16.1573 22.4929 16.1573H2.47654C2.2779 16.1573 2.09913 16.0314 2.03291 15.8425L1.02647 12.9492C0.920524 12.6443 1.14565 12.3262 1.4701 12.3262H23.506C23.8304 12.3262 24.0555 12.6443 23.9496 12.9525H23.9463Z" fill="black" stroke="black" stroke-width="0.331413" stroke-miterlimit="10"/>
<path d="M22.226 18.6231L21.2195 21.5097C21.1533 21.6986 20.9745 21.8245 20.7759 21.8245H4.19932C4.00068 21.8245 3.8219 21.6986 3.75569 21.5097L2.74924 18.6231C2.6433 18.3182 2.86843 18 3.19287 18H21.7856C22.1101 18 22.3352 18.3182 22.2293 18.6231H22.226Z" fill="black" stroke="black" stroke-width="0.331413" stroke-miterlimit="10"/>
<path d="M21.1539 9.6767C21.1539 10.6755 20.778 12.0395 20.181 13.5696H4.79427C4.19726 12.0395 3.8186 10.6755 3.8186 9.6767C3.8186 4.88459 7.70192 1 12.4863 1C17.2706 1 21.1539 4.88459 21.1539 9.6767Z" stroke="black" stroke-width="1.03792" stroke-miterlimit="10"/>
</svg>
