<svg width="149" height="152" viewBox="0 0 149 152" fill="none" xmlns="http://www.w3.org/2000/svg">
<path d="M135.041 73.7747C135.041 89.829 127.358 104.964 115.644 116.09C103.93 127.216 88.2017 134.315 72.1392 134.315C40.0317 134.315 13.9595 103.571 13.9595 71.4139C13.9595 39.3142 42.3338 16.7754 74.5 16.7754C106.652 16.7754 135.041 41.662 135.041 73.7747Z" stroke="black" stroke-width="0.5"/>
<path d="M94.295 132.9C78.9755 137.701 62.2354 134.896 48.1155 127.046C33.9954 119.195 22.5171 106.31 17.7133 90.9832C8.11078 60.3452 29.6502 26.2716 60.3357 16.6542C90.9662 7.05408 120.959 27.389 130.579 58.083C140.195 88.763 124.938 123.295 94.295 132.9Z" stroke="black" stroke-width="0.5"/>
<path d="M36.0355 82.286C35.2675 82.286 34.5848 82.158 33.9875 81.902C33.4008 81.646 32.8302 81.246 32.2755 80.702C32.1475 80.5953 32.0835 80.4673 32.0835 80.318C32.0835 80.19 32.1315 80.0726 32.2275 79.966C32.3342 79.8593 32.4515 79.806 32.5795 79.806C32.7075 79.806 32.8248 79.8593 32.9315 79.966C33.7635 80.8833 34.8035 81.342 36.0515 81.342C36.8195 81.342 37.4542 81.1606 37.9555 80.798C38.4675 80.4353 38.7235 79.9606 38.7235 79.374C38.7235 78.9153 38.5955 78.5366 38.3395 78.238C38.0942 77.9286 37.7688 77.678 37.3635 77.486C36.9582 77.294 36.4408 77.0966 35.8115 76.894C35.1288 76.6913 34.5528 76.4673 34.0835 76.222C33.6248 75.9766 33.2515 75.6513 32.9635 75.246C32.6755 74.83 32.5315 74.3073 32.5315 73.678C32.5315 73.1126 32.6808 72.6113 32.9795 72.174C33.2888 71.7366 33.7155 71.3953 34.2595 71.15C34.8142 70.894 35.4488 70.766 36.1635 70.766C36.8142 70.766 37.4222 70.878 37.9875 71.102C38.5635 71.3153 39.0222 71.6246 39.3635 72.03C39.5235 72.2113 39.6035 72.366 39.6035 72.494C39.6035 72.6113 39.5502 72.7233 39.4435 72.83C39.3368 72.926 39.2195 72.974 39.0915 72.974C38.9848 72.974 38.8942 72.9366 38.8195 72.862C38.5315 72.5206 38.1475 72.2433 37.6675 72.03C37.1875 71.8166 36.6862 71.71 36.1635 71.71C35.3848 71.71 34.7502 71.886 34.2595 72.238C33.7688 72.5793 33.5235 73.0486 33.5235 73.646C33.5235 74.2646 33.7582 74.7393 34.2275 75.07C34.6968 75.4006 35.3688 75.7046 36.2435 75.982C37.0008 76.206 37.6195 76.4353 38.0995 76.67C38.5795 76.9046 38.9688 77.2406 39.2675 77.678C39.5768 78.1046 39.7315 78.67 39.7315 79.374C39.7315 79.918 39.5715 80.414 39.2515 80.862C38.9422 81.2993 38.5048 81.646 37.9395 81.902C37.3848 82.158 36.7502 82.286 36.0355 82.286ZM47.0839 73.886C48.0439 73.886 48.7585 74.19 49.2279 74.798C49.6972 75.3953 49.9319 76.1686 49.9319 77.118V81.646C49.9319 81.7846 49.8839 81.902 49.7879 81.998C49.7025 82.0833 49.5905 82.126 49.4519 82.126C49.3132 82.126 49.1959 82.0833 49.0999 81.998C49.0145 81.902 48.9719 81.7846 48.9719 81.646V77.118C48.9719 76.4246 48.8065 75.8646 48.4759 75.438C48.1452 75.0006 47.6279 74.782 46.9239 74.782C46.4759 74.782 46.0492 74.8886 45.6439 75.102C45.2492 75.3153 44.9292 75.6033 44.6839 75.966C44.4385 76.318 44.3159 76.702 44.3159 77.118V81.646C44.3159 81.7846 44.2679 81.902 44.1719 81.998C44.0865 82.0833 43.9745 82.126 43.8359 82.126C43.6972 82.126 43.5799 82.0833 43.4839 81.998C43.3985 81.902 43.3559 81.7846 43.3559 81.646V70.766C43.3559 70.6273 43.3985 70.5153 43.4839 70.43C43.5799 70.334 43.6972 70.286 43.8359 70.286C43.9745 70.286 44.0865 70.334 44.1719 70.43C44.2679 70.5153 44.3159 70.6273 44.3159 70.766V75.454C44.6039 74.9953 45.0039 74.622 45.5159 74.334C46.0279 74.0353 46.5505 73.886 47.0839 73.886ZM61.6016 78.03C61.6016 78.83 61.4256 79.5553 61.0736 80.206C60.7216 80.8566 60.2363 81.3686 59.6176 81.742C58.9989 82.1046 58.3109 82.286 57.5536 82.286C56.7963 82.286 56.1083 82.1046 55.4896 81.742C54.8709 81.3686 54.3856 80.8566 54.0336 80.206C53.6816 79.5553 53.5056 78.83 53.5056 78.03C53.5056 77.23 53.6816 76.5046 54.0336 75.854C54.3856 75.2033 54.8709 74.6913 55.4896 74.318C56.1083 73.9446 56.7963 73.758 57.5536 73.758C58.3109 73.758 58.9989 73.9446 59.6176 74.318C60.2363 74.6913 60.7216 75.2033 61.0736 75.854C61.4256 76.5046 61.6016 77.23 61.6016 78.03ZM60.6416 78.03C60.6416 77.39 60.5083 76.814 60.2416 76.302C59.9749 75.79 59.6016 75.39 59.1216 75.102C58.6523 74.8033 58.1296 74.654 57.5536 74.654C56.9776 74.654 56.4549 74.8033 55.9856 75.102C55.5163 75.39 55.1429 75.79 54.8656 76.302C54.5989 76.814 54.4656 77.39 54.4656 78.03C54.4656 78.6593 54.5989 79.23 54.8656 79.742C55.1429 80.254 55.5163 80.6593 55.9856 80.958C56.4549 81.246 56.9776 81.39 57.5536 81.39C58.1296 81.39 58.6523 81.246 59.1216 80.958C59.6016 80.67 59.9749 80.27 60.2416 79.758C60.5083 79.246 60.6416 78.67 60.6416 78.03ZM69.0532 73.886C69.7572 73.886 70.3972 74.0673 70.9732 74.43C71.5492 74.782 71.9972 75.278 72.3172 75.918C72.6479 76.5473 72.8132 77.2566 72.8132 78.046C72.8132 78.846 72.6479 79.566 72.3172 80.206C71.9972 80.8353 71.5492 81.3313 70.9732 81.694C70.4079 82.0566 69.7732 82.238 69.0692 82.238C68.4506 82.238 67.8799 82.094 67.3572 81.806C66.8452 81.5073 66.4346 81.1126 66.1252 80.622V84.846C66.1252 84.9846 66.0772 85.0966 65.9812 85.182C65.8959 85.278 65.7839 85.326 65.6452 85.326C65.5066 85.326 65.3892 85.278 65.2932 85.182C65.2079 85.0966 65.1652 84.9846 65.1652 84.846V74.414C65.1652 74.2753 65.2079 74.158 65.2932 74.062C65.3892 73.966 65.5066 73.918 65.6452 73.918C65.7839 73.918 65.8959 73.966 65.9812 74.062C66.0772 74.158 66.1252 74.2753 66.1252 74.414V75.502C66.4026 75.0006 66.8026 74.606 67.3252 74.318C67.8479 74.03 68.4239 73.886 69.0532 73.886ZM68.9732 81.342C69.5279 81.342 70.0239 81.2033 70.4612 80.926C70.9092 80.638 71.2559 80.2433 71.5012 79.742C71.7572 79.2406 71.8852 78.6753 71.8852 78.046C71.8852 77.4273 71.7572 76.8726 71.5012 76.382C71.2559 75.8806 70.9092 75.4913 70.4612 75.214C70.0239 74.926 69.5279 74.782 68.9732 74.782C68.4079 74.782 67.9012 74.9206 67.4532 75.198C67.0052 75.4753 66.6586 75.8646 66.4132 76.366C66.1679 76.8566 66.0452 77.4166 66.0452 78.046C66.0452 78.6753 66.1679 79.2406 66.4132 79.742C66.6586 80.2433 67.0052 80.638 67.4532 80.926C67.9012 81.2033 68.4079 81.342 68.9732 81.342ZM90.7972 70.926C90.9359 70.926 91.0426 70.9686 91.1172 71.054C91.2026 71.1393 91.2452 71.246 91.2452 71.374V81.614C91.2452 81.774 91.1972 81.902 91.1012 81.998C91.0052 82.0833 90.8879 82.126 90.7492 82.126C90.6746 82.126 90.5999 82.11 90.5252 82.078C90.4612 82.046 90.4079 82.0086 90.3652 81.966L83.5012 72.718V81.694C83.5012 81.8113 83.4532 81.9126 83.3572 81.998C83.2719 82.0833 83.1706 82.126 83.0532 82.126C82.9252 82.126 82.8186 82.0833 82.7332 81.998C82.6479 81.9126 82.6052 81.8113 82.6052 81.694V71.406C82.6052 71.2566 82.6479 71.1393 82.7332 71.054C82.8292 70.9686 82.9412 70.926 83.0692 70.926C83.2399 70.926 83.3679 70.9846 83.4532 71.102L90.3492 80.398V71.374C90.3492 71.246 90.3919 71.1393 90.4772 71.054C90.5626 70.9686 90.6692 70.926 90.7972 70.926ZM103.158 78.03C103.158 78.83 102.982 79.5553 102.63 80.206C102.278 80.8566 101.793 81.3686 101.174 81.742C100.555 82.1046 99.8672 82.286 99.1099 82.286C98.3525 82.286 97.6645 82.1046 97.0459 81.742C96.4272 81.3686 95.9419 80.8566 95.5899 80.206C95.2379 79.5553 95.0619 78.83 95.0619 78.03C95.0619 77.23 95.2379 76.5046 95.5899 75.854C95.9419 75.2033 96.4272 74.6913 97.0459 74.318C97.6645 73.9446 98.3525 73.758 99.1099 73.758C99.8672 73.758 100.555 73.9446 101.174 74.318C101.793 74.6913 102.278 75.2033 102.63 75.854C102.982 76.5046 103.158 77.23 103.158 78.03ZM102.198 78.03C102.198 77.39 102.065 76.814 101.798 76.302C101.531 75.79 101.158 75.39 100.678 75.102C100.209 74.8033 99.6859 74.654 99.1099 74.654C98.5339 74.654 98.0112 74.8033 97.5419 75.102C97.0725 75.39 96.6992 75.79 96.4219 76.302C96.1552 76.814 96.0219 77.39 96.0219 78.03C96.0219 78.6593 96.1552 79.23 96.4219 79.742C96.6992 80.254 97.0725 80.6593 97.5419 80.958C98.0112 81.246 98.5339 81.39 99.1099 81.39C99.6859 81.39 100.209 81.246 100.678 80.958C101.158 80.67 101.531 80.27 101.798 79.758C102.065 79.246 102.198 78.67 102.198 78.03ZM116.433 73.774C116.572 73.774 116.684 73.8166 116.769 73.902C116.865 73.9873 116.913 74.1046 116.913 74.254C116.913 74.2646 116.897 74.334 116.865 74.462L114.401 81.822C114.348 81.918 114.279 81.998 114.193 82.062C114.108 82.1153 114.017 82.1366 113.921 82.126C113.825 82.126 113.74 82.0993 113.665 82.046C113.591 81.9926 113.532 81.918 113.489 81.822L111.393 76.894L109.521 81.822C109.479 81.9073 109.415 81.982 109.329 82.046C109.255 82.0993 109.175 82.126 109.089 82.126C108.983 82.1366 108.881 82.1153 108.785 82.062C108.7 81.998 108.641 81.918 108.609 81.822L106.081 74.462C106.049 74.398 106.033 74.3286 106.033 74.254C106.033 74.1153 106.081 74.0033 106.177 73.918C106.273 73.822 106.391 73.774 106.529 73.774C106.625 73.774 106.711 73.806 106.785 73.87C106.871 73.9233 106.929 73.998 106.961 74.094L109.089 80.478L110.993 75.694C111.068 75.4913 111.217 75.39 111.441 75.39C111.655 75.39 111.804 75.4913 111.889 75.694L113.889 80.446L115.985 74.094C116.049 73.8806 116.199 73.774 116.433 73.774Z" fill="black"/>
</svg>
