<svg width="14" height="12" viewBox="0 0 14 12" fill="none" xmlns="http://www.w3.org/2000/svg">
<path d="M3.28284 0.217157C3.12663 0.0609476 2.87337 0.0609476 2.71716 0.217157L0.171573 2.76274C0.0153631 2.91895 0.0153631 3.17222 0.171573 3.32843C0.327783 3.48464 0.581048 3.48464 0.737258 3.32843L3 1.06569L5.26274 3.32843C5.41895 3.48464 5.67222 3.48464 5.82843 3.32843C5.98464 3.17222 5.98464 2.91895 5.82843 2.76274L3.28284 0.217157ZM2.6 0.5L2.6 11.5L3.4 11.5L3.4 0.5L2.6 0.5Z" fill="black"/>
<path d="M10.7172 11.7828C10.8734 11.9391 11.1266 11.9391 11.2828 11.7828L13.8284 9.23726C13.9846 9.08105 13.9846 8.82778 13.8284 8.67157C13.6722 8.51536 13.419 8.51536 13.2627 8.67157L11 10.9343L8.73726 8.67157C8.58105 8.51536 8.32778 8.51536 8.17157 8.67157C8.01536 8.82778 8.01536 9.08105 8.17157 9.23726L10.7172 11.7828ZM10.6 0.5L10.6 11.5L11.4 11.5L11.4 0.5L10.6 0.5Z" fill="black"/>
</svg>
