<svg width="6" height="8" viewBox="0 0 6 8" fill="none" xmlns="http://www.w3.org/2000/svg">
<path d="M5.67658 0.5C5.7658 0.5 5.84015 0.52644 5.89963 0.57932C5.96654 0.62559 6 0.68508 6 0.75779C6 0.82389 5.97398 0.886685 5.92193 0.946175L3.35688 4.04957L2.98885 3.56374L5.40892 0.628895C5.48327 0.542965 5.57249 0.5 5.67658 0.5ZM0.345725 0.5C0.464684 0.5 0.557621 0.53966 0.624535 0.61898L5.92193 7.02408C5.97398 7.08357 6 7.14306 6 7.20255C6 7.29509 5.96283 7.3678 5.88848 7.42068C5.81413 7.47356 5.73606 7.5 5.65427 7.5C5.53532 7.5 5.4461 7.46034 5.38662 7.38102L0.0780669 0.97592C0.0260223 0.92304 0 0.86355 0 0.79745C0 0.71152 0.0334572 0.642115 0.100372 0.589235C0.174721 0.529745 0.256506 0.5 0.345725 0.5ZM0.312268 7.5C0.215613 7.5 0.141264 7.47356 0.0892193 7.42068C0.0371747 7.36119 0.0111524 7.3017 0.0111524 7.24221C0.0111524 7.18272 0.0371747 7.11662 0.0892193 7.04391L2.65427 3.94051L3.01115 4.43626L0.579926 7.3711C0.513011 7.45703 0.423792 7.5 0.312268 7.5Z" fill="black"/>
</svg>
